<?xml version="1.0" encoding="UTF-8" standalone="no"?>
<!DOCTYPE svg PUBLIC "-//W3C//DTD SVG 1.1//EN" "http://www.w3.org/Graphics/SVG/1.1/DTD/svg11.dtd">
<svg width="100%" height="100%" viewBox="0 0 246 28" version="1.1" xmlns="http://www.w3.org/2000/svg" xmlns:xlink="http://www.w3.org/1999/xlink" xml:space="preserve" style="fill-rule:evenodd;clip-rule:evenodd;stroke-linejoin:round;stroke-miterlimit:1.41421;">
    <clipPath id="_clip1">
        <path d="M31.069,1.952L25.678,22.065L27.45,22.065L32.569,2.995L33.392,2.466L34.059,0L31.069,1.952Z"/>
    </clipPath>
    <g clip-path="url(#_clip1)">
        <rect x="25.678" y="0" width="8.381" height="22.065" style="fill:rgb(16,71,125);"/>
    </g>
    <clipPath id="_clip2">
        <path d="M3.497,16.962L0.747,27.257L3.204,27.975L8.606,27.975L12.244,14.377L3.497,16.962Z"/>
    </clipPath>
    <g clip-path="url(#_clip2)">
        <rect x="0.747" y="14.377" width="11.497" height="13.598" style="fill:rgb(16,71,125);"/>
    </g>
    <clipPath id="_clip3">
        <path d="M30.399,22.076L30.772,22.076L39.14,3.785L241.768,3.785L241.874,3.425L36.314,0.005L30.399,22.076Z"/>
    </clipPath>
    <g clip-path="url(#_clip3)">
        <rect x="30.399" y="0.005" width="211.475" height="22.071" style="fill:rgb(16,71,125);"/>
    </g>
    <path d="M159.208,16.432L169.383,14.564L165.794,27.976L156.125,27.976L159.208,16.432Z" style="fill:rgb(16,71,125);fill-rule:nonzero;"/>
    <path d="M199.808,9.114L190.153,9.114L191.175,5.257L200.844,5.257L199.808,9.114Z" style="fill:rgb(16,71,125);fill-rule:nonzero;"/>
    <g>
        <path d="M216.997,7.707L225.541,7.707L226.213,5.258L213.185,5.258C211.726,5.258 210.392,5.668 209.182,6.492C207.971,7.315 207.209,8.283 206.9,9.401L206.44,11.084L206.438,11.092L202.116,11.092L201.459,13.541L205.784,13.541L201.93,27.968L211.586,27.968L215.452,13.541L221.472,13.541L222.144,11.092L216.108,11.092L216.11,11.084L216.997,7.707Z" style="fill:rgb(16,71,125);fill-rule:nonzero;"/>
        <path d="M244.199,11.092L239.819,11.092L241.376,5.258L231.81,5.258L230.245,11.092L224.628,11.092L223.969,13.541L229.588,13.541L225.72,27.968L235.318,27.968L239.166,13.541L243.527,13.541L244.199,11.092Z" style="fill:rgb(16,71,125);fill-rule:nonzero;"/>
        <path d="M194.742,27.968L185.087,27.968L189.602,11.095L199.271,11.095L194.742,27.968Z" style="fill:rgb(16,71,125);fill-rule:nonzero;"/>
        <path d="M184.791,14.348C184.791,13.39 184.397,12.61 183.609,12.008C182.943,11.498 182.082,11.174 181.118,11.096L170.311,11.096L171.885,5.257L162.215,5.257L160.656,11.096L136.491,11.096L136.491,11.114C135.177,11.178 133.963,11.568 132.858,12.321C131.646,13.143 130.885,14.111 130.576,15.229L129.846,17.902C129.753,18.179 129.707,18.474 129.707,18.782C129.707,19.74 130.102,20.52 130.888,21.123C131.555,21.632 132.417,21.956 133.38,22.035L144.804,22.035L144.8,22.035L143.982,25.105L108.393,25.105L111.392,13.965L117.835,13.965L115.013,24.544L125.163,22.681L129.838,5.257L120.169,5.257L118.605,11.096L107.697,11.086C106.239,11.086 104.905,11.497 103.695,12.321C102.483,13.143 101.722,14.111 101.413,15.229L99.074,23.842C98.981,24.12 98.934,24.415 98.934,24.723C98.934,25.68 99.33,26.46 100.116,27.063C100.783,27.572 101.644,27.897 102.607,27.975L143.229,27.975L143.229,27.977L147.684,27.977C149.143,27.977 150.477,27.566 151.687,26.743C152.898,25.92 153.66,24.952 153.969,23.834C153.969,23.834 154.806,20.618 154.806,20.311C154.806,19.353 154.411,18.573 153.624,17.97C152.957,17.461 152.096,17.137 151.133,17.058L139.746,17.058L140.555,13.965L175.349,13.981L171.59,27.977L181.246,27.977L184.651,15.228C184.744,14.95 184.791,14.656 184.791,14.348" style="fill:rgb(16,71,125);fill-rule:nonzero;"/>
        <path d="M23.374,23.848L29.245,1.938L27.614,1.938L27.617,1.945C25.072,2.017 17.637,2.724 15.82,8.265C15.606,9.092 15.31,10.182 15.272,10.282L23.406,10.28L21.043,11.788L14.339,13.766L10.53,27.975L35.083,27.975L37.621,23.842L23.374,23.848Z" style="fill:rgb(16,71,125);fill-rule:nonzero;"/>
        <path d="M68.552,14.347C68.552,13.39 68.158,12.61 67.37,12.007C66.704,11.498 65.843,11.173 64.879,11.095L48.695,11.068C47.237,11.068 45.902,11.479 44.692,12.301C43.481,13.125 42.719,14.093 42.411,15.211L40.137,23.843C40.044,24.12 39.998,24.416 39.998,24.722C39.998,25.681 40.392,26.461 41.179,27.063C41.845,27.573 42.707,27.896 43.671,27.976L59.79,27.95C61.248,27.95 62.582,27.54 63.792,26.717C64.991,25.902 65.747,24.944 66.062,23.84L66.097,23.833L68.412,15.228C68.505,14.95 68.552,14.655 68.552,14.347M56.136,25.014L56.086,25.038L56.068,25.105L49.435,25.105L52.411,13.965L59.113,13.965L56.136,25.014Z" style="fill:rgb(16,71,125);fill-rule:nonzero;"/>
        <path d="M96.596,12.006C95.929,11.498 95.067,11.174 94.105,11.095L77.062,11.071L76.396,13.533L88.455,13.533L88.453,13.533L87.897,15.594L76.771,15.594C75.312,15.594 73.977,16.005 72.767,16.827C71.628,17.602 70.901,18.511 70.56,19.548L70.534,19.55L69.384,23.842L69.37,23.842C69.277,24.12 69.231,24.415 69.231,24.722C69.231,25.68 69.625,26.46 70.412,27.062C71.078,27.572 71.94,27.896 72.904,27.975L94.2,27.967L97.638,15.227C97.731,14.95 97.776,14.655 97.776,14.347C97.776,13.39 97.382,12.61 96.596,12.006M85.331,25.105L78.669,25.105L80.485,18.463L87.124,18.463L85.331,25.105Z" style="fill:rgb(16,71,125);fill-rule:nonzero;"/>
    </g>
</svg>
