
<svg xmlns="http://www.w3.org/2000/svg" version="1.1" xmlns:xlink="http://www.w3.org/1999/xlink" preserveAspectRatio="none" x="0px" y="0px" width="500px" height="180px" viewBox="0 0 500 180">
<defs>
<g id="Layer3_0_MEMBER_0_FILL">
<path fill="#2FC24B" stroke="none" d="
M 778.15 287.3
Q 770.85 280 760.5 280
L 320 280
Q 309.65 280 302.3 287.3 295 294.65 295 305
L 295 435
Q 295 445.35 302.3 452.65 309.65 460 320 460
L 760.5 460
Q 770.85 460 778.15 452.65 785.5 445.35 785.5 435
L 785.5 305
Q 785.5 294.65 778.15 287.3 Z"/>
</g>

<g id="Layer3_0_MEMBER_1_FILL">
<path fill="#2FC24B" stroke="none" d="
M 500 178.9
Q 490.95 176.75 489.95 151.85
L 480.95 173.35
Q 486.75 179.85 500 178.9 Z"/>
</g>

<g id="Layer3_1_FILL">
<path fill="#FFFFFF" stroke="none" d="
M 96.1 136.2
L 93.95 136.2 93.95 150.15 96.2 150.15 96.2 142.25
Q 96.2 141.3 96.5 140.55 96.75 139.7 97.25 139.15 97.75 138.55 98.55 138.2 99.3 137.9 100.35 137.9 101 137.9 101.55 138.1 102.05 138.25 102.45 138.65 102.8 139 103 139.55 103.2 140.05 103.2 140.7
L 103.2 150.15 105.5 150.15 105.5 140.95
Q 105.5 139.85 105.25 138.9 105.05 137.95 104.45 137.3 103.9 136.6 102.95 136.25 102.05 135.85 100.7 135.85 99.1 135.85 98 136.5 96.85 137.15 96.15 138.4
L 96.1 138.4 96.1 136.2
M 98.5 103.85
Q 97.95 103.15 97 102.8 96.1 102.4 94.75 102.4 93.15 102.4 92.05 103.05 90.9 103.7 90.2 104.95
L 90.15 104.95 90.15 102.75 88 102.75 88 116.7 90.25 116.7 90.25 108.8
Q 90.25 107.85 90.55 107.1 90.8 106.25 91.3 105.7 91.8 105.1 92.6 104.75 93.35 104.45 94.4 104.45 95.05 104.45 95.6 104.65 96.1 104.8 96.5 105.2 96.85 105.55 97.05 106.1 97.25 106.6 97.25 107.25
L 97.25 116.7 99.55 116.7 99.55 107.5
Q 99.55 106.4 99.3 105.45 99.1 104.5 98.5 103.85
M 159.3 136.2
L 157 136.2 157 150.15 159.3 150.15 159.3 136.2
M 157 130.9
L 157 133.7 159.3 133.7 159.3 130.9 157 130.9
M 137.05 139.25
Q 137.45 138.7 138.2 138.3 138.9 137.9 139.9 137.9 140.7 137.9 141.2 138.15 141.7 138.35 141.95 138.75 142.3 139.2 142.4 139.75
L 142.5 141 142.5 150.15 144.8 150.15 144.8 141.45
Q 144.8 139.85 145.8 138.85 146.75 137.9 148.45 137.9 149.3 137.9 149.8 138.15 150.35 138.4 150.65 138.8 150.95 139.2 151.05 139.8
L 151.15 141 151.15 150.15 153.45 150.15 153.45 139.9
Q 153.45 138.85 153.1 138.05 152.8 137.3 152.2 136.8 151.55 136.3 150.7 136.1 149.85 135.85 148.8 135.85 147.45 135.85 146.3 136.5 145.7 136.8 145.25 137.25 144.8 137.7 144.45 138.25 144.2 137.6 143.85 137.15 143.45 136.7 142.95 136.4 141.9 135.85 140.6 135.85 139.1 135.85 138 136.45 136.85 137.05 136.1 138.25
L 136.05 138.25 136.05 136.2 133.9 136.2 133.9 150.15 136.15 150.15 136.15 141.45
Q 136.15 141.05 136.4 140.45 136.6 139.85 137.05 139.25
M 123.2 132.6
Q 125.2 132.6 126.45 133.5 127.75 134.45 127.95 136.5
L 130.4 136.5
Q 130.35 134.9 129.8 133.8 129.25 132.65 128.25 131.9 127.3 131.1 126.05 130.75 124.75 130.4 123.3 130.4 121.95 130.4 120.7 130.75 119.45 131.1 118.45 131.75 117.5 132.45 116.9 133.55 116.6 134.05 116.45 134.7 116.3 135.35 116.3 136.05 116.3 137.4 116.8 138.25 117.35 139.15 118.2 139.7 119.1 140.25 120.2 140.6
L 124.7 141.65
Q 125.85 141.9 126.7 142.3 127.6 142.7 128.1 143.3 128.65 143.95 128.65 144.95 128.65 146 128.2 146.65 127.75 147.35 127.05 147.75 126.35 148.1 125.5 148.3 124.6 148.45 123.75 148.45 122.65 148.45 121.65 148.15 120.6 147.9 119.85 147.35 119.1 146.8 118.6 145.9 118.15 145 118.15 143.8
L 115.7 143.8
Q 115.7 145.55 116.35 146.85 116.65 147.5 117.1 148 117.5 148.55 118.05 148.95 119.15 149.75 120.6 150.2 122.05 150.6 123.65 150.6 125 150.6 126.35 150.25 127.65 149.95 128.75 149.25 129.8 148.6 130.5 147.5 131.2 146.4 131.2 144.85 131.2 143.45 130.65 142.5 130.15 141.55 129.25 140.9 128.4 140.3 127.3 139.95
L 122.75 138.8
Q 121.65 138.55 120.8 138.2 119.9 137.85 119.4 137.3 118.85 136.75 118.85 135.85 118.85 134.9 119.2 134.3 119.6 133.65 120.2 133.3 120.8 132.9 121.6 132.75 122.35 132.6 123.2 132.6
M 78.95 130.9
L 78.95 150.15 81.2 150.15 81.2 142.25
Q 81.2 141.3 81.5 140.55 81.75 139.7 82.25 139.15 82.75 138.55 83.55 138.2 84.3 137.9 85.35 137.9 86 137.9 86.55 138.1 87.05 138.25 87.45 138.65 87.8 139 88 139.55 88.2 140.05 88.2 140.7
L 88.2 150.15 90.5 150.15 90.5 140.95
Q 90.5 139.85 90.25 138.9 90.05 137.95 89.45 137.3 88.9 136.6 87.95 136.25 87.05 135.85 85.7 135.85
L 84.4 136 83.15 136.45
Q 82.5 136.7 82.05 137.15 81.55 137.6 81.25 138.25
L 81.2 138.25 81.2 130.9 78.95 130.9
M 64.45 138
Q 63.6 138.95 63.15 140.3 62.75 141.65 62.75 143.2 62.75 144.7 63.15 146.05 63.6 147.35 64.45 148.35 65.3 149.35 66.6 149.9 67.2 150.2 67.95 150.3
L 69.5 150.45 71.05 150.3
Q 71.8 150.2 72.45 149.9 73.7 149.35 74.55 148.35 75.4 147.35 75.85 146.05 76.3 144.7 76.3 143.2 76.3 141.65 75.85 140.3 75.4 138.95 74.55 138 73.7 137 72.45 136.45 71.2 135.85 69.5 135.85 67.85 135.85 66.6 136.45 65.3 137 64.45 138
M 67.8 138.25
Q 68.6 137.9 69.5 137.9 70.4 137.9 71.2 138.25 72 138.6 72.55 139.25 73.15 139.95 73.5 140.95 73.85 141.9 73.85 143.2 73.85 144.45 73.5 145.45 73.15 146.4 72.55 147.1 72 147.75 71.2 148.1 70.4 148.45 69.5 148.45 68.6 148.45 67.8 148.1 67 147.75 66.4 147.1 65.8 146.4 65.5 145.45 65.15 144.45 65.15 143.2 65.15 141.9 65.5 140.95 65.8 139.95 66.4 139.25 67 138.6 67.8 138.25
M 59.65 130.9
L 57.1 130.9 57.1 144.95
Q 57.1 146.55 56.4 147.5 56.1 147.95 55.5 148.2 54.9 148.45 54 148.45 53.05 148.45 52.45 148.15 51.85 147.9 51.5 147.35 51.2 146.85 51.05 146.15
L 50.9 144.6 50.9 143.8 48.35 143.8 48.35 145
Q 48.35 147.75 49.8 149.15 51.25 150.6 53.95 150.6 55.6 150.6 56.7 150.15 57.75 149.7 58.45 148.95 59.1 148.2 59.4 147.25 59.65 146.3 59.65 145.35
L 59.65 130.9
M 80.35 102.75
L 78 102.75 78 104.75 80.35 104.75 80.35 113.65
Q 80.35 114.6 80.55 115.2 80.75 115.8 81.15 116.15 81.55 116.45 82.15 116.6
L 85.45 116.7 85.45 114.65 83.5 114.65 83 114.45
Q 82.8 114.35 82.75 114.1
L 82.65 113.45 82.65 104.75 85.45 104.75 85.45 102.75 82.65 102.75 82.65 98.55 80.35 98.55 80.35 102.75
M 70.25 97.55
Q 68.75 97.55 67.7 98 66.65 98.45 65.95 99.15 65.25 99.9 64.85 100.85 64.4 101.85 64.2 102.9 64 104 63.95 105.1
L 63.95 109.5
Q 64 110.6 64.2 111.7 64.4 112.8 64.85 113.75 65.25 114.7 65.95 115.45 66.65 116.15 67.7 116.6 68.75 117 70.25 117 71.75 117 72.8 116.6 73.9 116.15 74.6 115.45 75.25 114.7 75.7 113.75 76.1 112.8 76.3 111.7 76.5 110.6 76.6 109.5
L 76.6 105.1
Q 76.5 104 76.3 102.9 76.1 101.8 75.7 100.85 75.25 99.9 74.6 99.15 73.9 98.45 72.8 98 71.75 97.55 70.25 97.55
M 71.9 99.95
Q 72.6 100.35 73 100.95 73.45 101.55 73.7 102.35
L 74.2 105.7 74.15 109.7
Q 74.05 111.05 73.7 112.2 73.35 113.4 72.5 114.2 71.7 115 70.25 115 68.8 115 68 114.2 67.2 113.4 66.8 112.2 66.45 111.05 66.4 109.7
L 66.3 105.7 66.8 102.35
Q 67.05 101.55 67.5 100.95 67.95 100.35 68.6 99.95 69.3 99.6 70.25 99.6 71.25 99.6 71.9 99.95
M 59.35 98.95
Q 58.5 98.3 57.45 97.95 56.35 97.55 55.1 97.55 53.6 97.55 52.4 98.05 51.2 98.6 50.4 99.5 49.6 100.4 49.25 101.65 48.85 102.85 48.95 104.35
L 51.25 104.35
Q 51.2 103.45 51.4 102.6 51.6 101.75 52.05 101.1 52.5 100.4 53.25 100 53.95 99.6 54.95 99.6 55.7 99.6 56.4 99.85 57.05 100.05 57.55 100.5 58.05 101 58.35 101.6 58.65 102.25 58.65 103.05 58.65 104.05 58.35 104.8 58.05 105.55 57.45 106.2 56.8 106.85 55.9 107.5
L 51.85 110.15
Q 50.95 110.8 50.2 111.7 49.5 112.6 49 113.8 48.55 115 48.4 116.7
L 60.9 116.7 60.9 114.65 51.05 114.65
Q 51.25 113.8 51.75 113.1 52.3 112.4 53 111.8
L 58.2 108.45
Q 59 107.8 59.65 107.05 60.3 106.25 60.7 105.3 61.1 104.35 61.1 103.05 61.1 101.7 60.6 100.7 60.15 99.65 59.35 98.95
M 67.25 73.65
L 69.55 73.65
Q 69.65 72.1 70.6 71.55 71.6 71 73.05 71
L 74.15 71.05
Q 74.7 71.15 75.15 71.4 75.55 71.65 75.85 72.1 76.15 72.55 76.15 73.3 76.15 73.95 75.75 74.3 75.4 74.65 74.75 74.8
L 69.7 75.75
Q 68.85 76 68.2 76.5 67.55 76.95 67.1 77.7 66.75 78.5 66.75 79.65 66.75 80.7 67.1 81.45 67.45 82.2 68.05 82.65 68.7 83.1 69.55 83.35 70.4 83.55 71.35 83.55 72.8 83.55 74.05 83.05 74.7 82.8 75.25 82.4 75.8 82 76.25 81.4 76.25 82.55 76.8 83.05 77.3 83.55 78.2 83.55 79.25 83.55 79.85 83.2
L 79.85 81.4 79.15 81.5
Q 78.6 81.5 78.5 81.15
L 78.4 79.95 78.4 72.8
Q 78.4 71.6 77.95 70.85 77.5 70.05 76.75 69.65 76 69.25 75.05 69.1
L 73.15 68.95
Q 72 68.95 70.95 69.2 69.9 69.45 69.1 70 68.3 70.55 67.8 71.45 67.3 72.35 67.25 73.65
M 76.1 76.05
L 76.1 78.35
Q 76.1 78.85 75.9 79.4 75.65 79.95 75.1 80.45 74.6 80.9 73.8 81.2 73 81.5 71.85 81.5
L 70.85 81.4
Q 70.35 81.3 70 81.05 69.6 80.8 69.4 80.45 69.15 80.05 69.15 79.5 69.15 78.6 69.55 78.1 69.95 77.6 70.55 77.35 71.2 77.1 71.95 76.95
L 75 76.5
Q 75.7 76.35 76.1 76.05
M 65.5 64
L 62.2 64 52.4 73.6 52.4 64 49.85 64 49.85 83.25 52.4 83.25 52.4 76.5 55.65 73.5 62.6 83.25 65.85 83.25 57.4 71.75 65.5 64
M 70.5 35.5
Q 68.85 35.5 67.6 36.1 66.3 36.65 65.45 37.65 64.6 38.6 64.15 39.95 63.75 41.3 63.75 42.85 63.75 44.35 64.15 45.7 64.6 47 65.45 48 66.3 49 67.6 49.55 68.2 49.85 68.95 49.95
L 70.5 50.1 72.05 49.95
Q 72.8 49.85 73.45 49.55 74.7 49 75.55 48 76.4 47 76.85 45.7 77.3 44.35 77.3 42.85 77.3 41.3 76.85 39.95 76.4 38.6 75.55 37.65 74.7 36.65 73.45 36.1 72.2 35.5 70.5 35.5
M 68.8 37.9
Q 69.6 37.55 70.5 37.55 71.4 37.55 72.2 37.9 73 38.25 73.55 38.9 74.15 39.6 74.5 40.6 74.85 41.55 74.85 42.85 74.85 44.1 74.5 45.1 74.15 46.05 73.55 46.75 73 47.4 72.2 47.75 71.4 48.1 70.5 48.1 69.6 48.1 68.8 47.75 68 47.4 67.4 46.75 66.8 46.05 66.5 45.1 66.15 44.1 66.15 42.85 66.15 41.55 66.5 40.6 66.8 39.6 67.4 38.9 68 38.25 68.8 37.9
M 52.4 47.65
L 52.4 30.55 49.85 30.55 49.85 49.8 62.6 49.8 62.6 47.65 52.4 47.65
M 158.7 97.45
L 143.25 97.45 143.25 99.6 149.7 99.6 149.7 116.7 152.25 116.7 152.25 99.6 158.7 99.6 158.7 97.45
M 138.4 97.45
L 135.55 97.45 128.05 116.7 130.65 116.7 132.8 110.9 140.95 110.9 143.05 116.7 145.9 116.7 138.4 97.45
M 140.15 108.75
L 133.65 108.75 136.9 99.75 136.95 99.75 140.15 108.75
M 136.3 69.3
L 134.15 69.3 134.15 83.25 136.45 83.25 136.45 77.05
Q 136.45 75.7 136.7 74.65 137 73.6 137.6 72.9 138.15 72.15 139.15 71.8 140.1 71.4 141.5 71.4
L 141.5 68.95
Q 139.65 68.9 138.4 69.7 137.8 70.15 137.3 70.75 136.8 71.4 136.35 72.25
L 136.3 72.25 136.3 69.3
M 157.5 69.3
L 155.2 69.3 155.2 83.25 157.5 83.25 157.5 69.3
M 157.5 66.8
L 157.5 64 155.2 64 155.2 66.8 157.5 66.8
M 151.55 64
L 149.25 64 149.25 83.25 151.55 83.25 151.55 64
M 145.6 69.3
L 143.3 69.3 143.3 83.25 145.6 83.25 145.6 69.3
M 143.3 64
L 143.3 66.8 145.6 66.8 145.6 64 143.3 64
M 119.05 96.95
Q 117.95 96.95 116.95 97.15 115.95 97.35 115.1 97.75 113.4 98.55 112.25 99.95 111.7 100.6 111.25 101.45 110.8 102.25 110.5 103.15 109.9 105 109.9 107.1 109.9 109.2 110.45 111.05 111 112.9 112.15 114.25 112.7 114.9 113.4 115.45 114.05 115.95 114.9 116.35 116.6 117.15 118.8 117.15 122.5 117.15 124.65 115.1 126.8 113.1 127.15 109.45
L 124.6 109.45
Q 124.5 110.6 124.1 111.65 123.7 112.7 123 113.4 122.3 114.15 121.3 114.6 120.3 115 119.05 115 117.3 115 116.05 114.35 114.85 113.7 114 112.6 113.25 111.5 112.85 110.05 112.5 108.6 112.5 106.95 112.5 105.4 112.85 104 113.25 102.6 114 101.5 114.85 100.4 116.05 99.75 117.3 99.15 119 99.15 120 99.15 120.9 99.4 121.8 99.65 122.5 100.15 124 101.15 124.4 103.25
L 126.95 103.25
Q 126.75 101.7 126.05 100.5 125.35 99.35 124.3 98.55 123.25 97.75 121.9 97.35 120.55 96.95 119.05 96.95
M 90.55 69.65
Q 89.3 70.35 88.5 71.4 87.75 72.5 87.45 73.8 87.15 75.1 87.15 76.35 87.15 77.75 87.5 79.05 87.9 80.35 88.7 81.3 89.45 82.25 90.65 82.8 91.8 83.4 93.35 83.4 94.7 83.4 95.9 82.8 97.1 82.15 97.7 80.9
L 97.75 80.9 97.75 81.8
Q 97.75 82.95 97.55 83.9 97.3 84.9 96.8 85.6 96.3 86.25 95.5 86.65 94.7 87.05 93.55 87.05
L 92.4 86.95
Q 91.75 86.8 91.25 86.55 90.7 86.25 90.35 85.85 90 85.4 89.95 84.8
L 87.65 84.8
Q 87.7 85.95 88.25 86.7 88.8 87.5 89.6 87.95 90.45 88.45 91.45 88.7 92.45 88.9 93.45 88.9 96.8 88.9 98.35 87.2 99.15 86.35 99.55 85.05 99.9 83.8 99.9 82.05
L 99.9 69.3 97.75 69.3 97.75 71.3
Q 97.1 70.15 96 69.55 94.9 68.95 93.55 68.95 91.75 68.95 90.55 69.65
M 89.8 74.15
Q 90 73.25 90.5 72.55 91 71.85 91.8 71.4 92.55 71 93.7 71 94.75 71 95.5 71.4 96.3 71.85 96.75 72.55 97.2 73.3 97.45 74.2 97.65 75.1 97.65 76 97.65 76.95 97.4 77.95 97.2 78.9 96.7 79.7 96.2 80.45 95.4 80.9 94.65 81.4 93.5 81.4 92.35 81.4 91.6 80.9 90.85 80.45 90.4 79.7 89.95 78.9 89.75 77.95 89.55 77 89.55 76.05 89.55 75.05 89.8 74.15
M 84.35 64
L 82.05 64 82.05 83.25 84.35 83.25 84.35 64
M 119.75 71.1
Q 118.9 72.05 118.45 73.4 118.05 74.75 118.05 76.3 118.05 77.8 118.45 79.15 118.9 80.45 119.75 81.45 120.6 82.45 121.9 83 122.5 83.3 123.25 83.4
L 124.8 83.55 126.35 83.4
Q 127.1 83.3 127.75 83 129 82.45 129.85 81.45 130.7 80.45 131.15 79.15 131.6 77.8 131.6 76.3 131.6 74.75 131.15 73.4 130.7 72.05 129.85 71.1 129 70.1 127.75 69.55 126.5 68.95 124.8 68.95 123.15 68.95 121.9 69.55 120.6 70.1 119.75 71.1
M 120.8 78.55
Q 120.45 77.55 120.45 76.3 120.45 75 120.8 74.05 121.1 73.05 121.7 72.35 122.3 71.7 123.1 71.35 123.9 71 124.8 71 125.7 71 126.5 71.35 127.3 71.7 127.85 72.35 128.45 73.05 128.8 74.05 129.15 75 129.15 76.3 129.15 77.55 128.8 78.55 128.45 79.5 127.85 80.2 127.3 80.85 126.5 81.2 125.7 81.55 124.8 81.55 123.9 81.55 123.1 81.2 122.3 80.85 121.7 80.2 121.1 79.5 120.8 78.55
M 109.35 68.95
Q 107.7 68.95 106.45 69.55 105.15 70.1 104.3 71.1 103.45 72.05 103 73.4 102.6 74.75 102.6 76.3 102.6 77.8 103 79.15 103.45 80.45 104.3 81.45 105.15 82.45 106.45 83 107.05 83.3 107.8 83.4
L 109.35 83.55 110.9 83.4
Q 111.65 83.3 112.3 83 113.55 82.45 114.4 81.45 115.25 80.45 115.7 79.15 116.15 77.8 116.15 76.3 116.15 74.75 115.7 73.4 115.25 72.05 114.4 71.1 113.55 70.1 112.3 69.55 111.05 68.95 109.35 68.95
M 109.35 71
Q 110.25 71 111.05 71.35 111.85 71.7 112.4 72.35 113 73.05 113.35 74.05 113.7 75 113.7 76.3 113.7 77.55 113.35 78.55 113 79.5 112.4 80.2 111.85 80.85 111.05 81.2 110.25 81.55 109.35 81.55 108.45 81.55 107.65 81.2 106.85 80.85 106.25 80.2 105.65 79.5 105.35 78.55 105 77.55 105 76.3 105 75 105.35 74.05 105.65 73.05 106.25 72.35 106.85 71.7 107.65 71.35 108.45 71 109.35 71
M 118.95 36.4
Q 118.2 35.9 117.2 35.7 116.2 35.5 115 35.5 114.1 35.5 113.15 35.75 112.2 35.95 111.45 36.45 110.75 36.9 110.25 37.65 109.8 38.45 109.8 39.5 109.8 40.85 110.45 41.6 111.15 42.35 112.15 42.75 113.15 43.2 114.35 43.4
L 116.55 43.95
Q 117.55 44.2 118.25 44.65 118.9 45.15 118.9 46 118.9 46.65 118.6 47.1 118.25 47.5 117.75 47.7
L 116.65 48 115.55 48.1 114.15 47.95
Q 113.5 47.85 113 47.5 112.45 47.2 112.15 46.7 111.8 46.15 111.8 45.4
L 109.5 45.4
Q 109.55 46.7 110 47.6 110.5 48.5 111.35 49.05 112.15 49.6 113.2 49.85 114.25 50.1 115.4 50.1 116.45 50.1 117.5 49.9 118.6 49.7 119.45 49.2 120.3 48.65 120.8 47.8 121.35 47 121.35 45.75 121.35 44.7 120.95 44.05 120.55 43.4 119.9 42.95 119.3 42.5 118.45 42.2
L 113.7 40.95
Q 113.05 40.7 112.65 40.3 112.2 39.9 112.2 39.3 112.2 38.8 112.5 38.45 112.75 38.1 113.2 37.9
L 114.15 37.6 115.2 37.55 116.3 37.65
Q 116.85 37.8 117.3 38.05 117.75 38.35 118.1 38.75 118.35 39.2 118.4 39.9
L 120.7 39.9
Q 120.65 38.6 120.15 37.8 119.7 36.9 118.95 36.4
M 83.4 35.75
Q 82.35 36 81.55 36.55 80.75 37.1 80.25 38 79.75 38.9 79.7 40.2
L 82 40.2
Q 82.1 38.65 83.05 38.1 84.05 37.55 85.5 37.55
L 86.6 37.6
Q 87.15 37.7 87.6 37.95 88 38.2 88.3 38.65 88.6 39.1 88.6 39.85 88.6 40.5 88.2 40.85 87.85 41.2 87.2 41.35
L 82.15 42.3
Q 81.3 42.55 80.65 43.05 80 43.5 79.55 44.25 79.2 45.05 79.2 46.2 79.2 47.25 79.55 48 79.9 48.75 80.5 49.2 81.15 49.65 82 49.9 82.85 50.1 83.8 50.1 85.25 50.1 86.5 49.6 87.15 49.35 87.7 48.95 88.25 48.55 88.7 47.95 88.7 49.1 89.25 49.6 89.75 50.1 90.65 50.1 91.7 50.1 92.3 49.75
L 92.3 47.95 91.6 48.05
Q 91.05 48.05 90.95 47.7
L 90.85 46.5 90.85 39.35
Q 90.85 38.15 90.4 37.4 89.95 36.6 89.2 36.2 88.45 35.8 87.5 35.65
L 85.6 35.5
Q 84.45 35.5 83.4 35.75
M 87.45 43.05
Q 88.15 42.9 88.55 42.6
L 88.55 44.9
Q 88.55 45.4 88.35 45.95 88.1 46.5 87.55 47 87.05 47.45 86.25 47.75 85.45 48.05 84.3 48.05
L 83.3 47.95
Q 82.8 47.85 82.45 47.6 82.05 47.35 81.85 47 81.6 46.6 81.6 46.05 81.6 45.15 82 44.65 82.4 44.15 83 43.9 83.65 43.65 84.4 43.5
L 87.45 43.05
M 101.15 35.65
L 100 35.5
Q 98.4 35.5 97.2 36.1 96 36.7 95.2 37.65 94.4 38.65 94 40 93.65 41.3 93.65 42.8 93.65 44.25 94 45.6 94.45 46.9 95.25 47.9 96.05 48.9 97.2 49.5 97.85 49.8 98.55 49.95
L 100.05 50.1
Q 101.5 50.1 102.7 49.6 103.95 49.05 104.5 47.9
L 104.55 47.9 104.55 49.8 106.85 49.8 106.85 30.55 104.55 30.55 104.55 37.7 104.5 37.7
Q 104.1 37.1 103.55 36.65 103 36.25 102.4 36
L 101.15 35.65
M 96.25 40.95
Q 96.5 40 96.95 39.2 97.45 38.45 98.25 38 99.05 37.55 100.25 37.55 101.45 37.55 102.25 38 103.1 38.45 103.65 39.15 104.15 39.9 104.4 40.85 104.65 41.8 104.65 42.85 104.65 43.8 104.4 44.75 104.15 45.7 103.65 46.45 103.15 47.2 102.35 47.65 101.55 48.1 100.4 48.1 99.25 48.1 98.45 47.65 97.6 47.25 97.1 46.5 96.55 45.8 96.3 44.85 96.05 43.9 96.05 42.95 96.05 41.9 96.25 40.95
M 151.1 30.55
L 150.4 30.35 149.65 30.3
Q 148.7 30.3 147.95 30.55 147.25 30.75 146.75 31.2 146.25 31.6 146 32.25 145.8 32.9 145.8 33.75
L 145.8 35.85 143.45 35.85 143.45 37.85 145.8 37.85 145.8 49.8 148.05 49.8 148.05 37.85 150.75 37.85 150.75 35.85 148.05 35.85 148.05 33.9
Q 148.05 33 148.55 32.65 149 32.35 149.8 32.35
L 150.45 32.35 151.1 32.5 151.1 30.55
M 158.75 35.85
L 155.95 35.85 155.95 31.65 153.65 31.65 153.65 35.85 151.3 35.85 151.3 37.85 153.65 37.85 153.65 46.75
Q 153.65 47.7 153.85 48.3 154.05 48.9 154.45 49.25 154.85 49.55 155.45 49.7
L 158.75 49.8 158.75 47.75 156.8 47.75 156.3 47.55
Q 156.1 47.45 156.05 47.2
L 155.95 46.55 155.95 37.85 158.75 37.85 158.75 35.85
M 134.4 36.95
Q 133.85 36.25 132.9 35.9 132 35.5 130.65 35.5
L 129.35 35.65 128.1 36.1
Q 127.45 36.35 127 36.8 126.5 37.25 126.2 37.9
L 126.15 37.9 126.15 30.55 123.9 30.55 123.9 49.8 126.15 49.8 126.15 41.9
Q 126.15 40.95 126.45 40.2 126.7 39.35 127.2 38.8 127.7 38.2 128.5 37.85 129.25 37.55 130.3 37.55 130.95 37.55 131.5 37.75 132 37.9 132.4 38.3 132.75 38.65 132.95 39.2 133.15 39.7 133.15 40.35
L 133.15 49.8 135.45 49.8 135.45 40.6
Q 135.45 39.5 135.2 38.55 135 37.6 134.4 36.95
M 139 33.35
L 141.3 33.35 141.3 30.55 139 30.55 139 33.35
M 141.3 35.85
L 139 35.85 139 49.8 141.3 49.8 141.3 35.85
M 262.3 131
Q 260.95 131 259.75 131.45 258.6 131.95 257.8 132.75 256.95 133.6 256.45 134.75 256 135.85 256 137.25 256 138.65 256.4 139.85 256.8 141.05 257.55 141.85 258.35 142.7 259.5 143.2 260.6 143.65 262.05 143.65 263.45 143.65 264.65 142.95 265.25 142.55 265.7 142.1 266.15 141.6 266.5 141
L 266.55 141.05
Q 266.45 144.8 265.4 146.65 264.35 148.45 262.25 148.45 261.55 148.45 260.95 148.25 260.35 148.05 259.85 147.7 258.85 146.95 258.7 145.55
L 256.4 145.55
Q 256.55 146.8 257 147.7 257.45 148.6 258.25 149.25 259.8 150.45 262.25 150.45 265.7 150.45 267.3 147.8 268.85 145.15 268.85 140.15 268.85 137.45 268.35 135.65 267.8 133.9 266.95 132.85 266.05 131.85 264.85 131.45 263.65 131 262.3 131
M 258.65 135.85
Q 258.85 135.05 259.3 134.4 259.75 133.8 260.45 133.4 261.2 133.05 262.2 133.05 263.15 133.05 263.9 133.4 264.65 133.75 265.15 134.35 265.65 134.95 265.9 135.75 266.15 136.5 266.15 137.4 266.15 138.25 265.85 139 265.6 139.8 265.1 140.35 264.6 140.95 263.85 141.3 263.1 141.6 262.25 141.6 261.4 141.6 260.7 141.3 260 140.95 259.5 140.4 259 139.8 258.75 139.1 258.45 138.35 258.45 137.55 258.45 136.7 258.65 135.85
M 281.25 116.45
L 281.25 113.7 278.25 113.7 278.25 116.7 279.85 116.7 279.8 117.4 279.55 118.15 279.05 118.8
Q 278.75 119.15 278.25 119.3
L 278.25 120.65
Q 279.85 120.2 280.55 119.05 280.9 118.5 281.05 117.85 281.25 117.2 281.25 116.45
M 265.7 103.2
Q 265.05 102.8 264.3 102.6 263.5 102.4 262.6 102.4 261.15 102.4 259.95 102.95 258.75 103.5 257.85 104.45 257 105.45 256.5 106.75 256.05 108.1 256.05 109.7 256.1 111.25 256.5 112.65 256.9 113.95 257.75 114.95 258.6 115.9 259.8 116.45 261.05 117 262.7 117 263.9 117 264.9 116.7 265.85 116.4 266.65 115.8 268.2 114.6 268.7 112.25
L 266.4 112.25
Q 266.25 112.95 265.95 113.45 265.65 114 265.2 114.35 264.25 115 262.8 115 261.65 115 260.8 114.6 260 114.25 259.45 113.6 258.9 112.95 258.65 112.15 258.45 111.3 258.45 110.4
L 268.9 110.4
Q 268.95 109.15 268.65 107.75 268.4 106.35 267.65 105.15 266.9 103.95 265.7 103.2
M 266.1 106.85
Q 266.4 107.6 266.45 108.4
L 258.45 108.4
Q 258.5 107.6 258.8 106.85 259.1 106.15 259.6 105.6 260.15 105.05 260.85 104.75 261.55 104.45 262.45 104.45 263.3 104.45 264.05 104.75 264.75 105.05 265.25 105.6 265.8 106.1 266.1 106.85
M 275.4 103.15
Q 274.8 103.6 274.3 104.2 273.8 104.85 273.35 105.7
L 273.3 105.7 273.3 102.75 271.15 102.75 271.15 116.7 273.45 116.7 273.45 110.5
Q 273.45 109.15 273.7 108.1 274 107.05 274.6 106.35 275.15 105.6 276.15 105.25 277.1 104.85 278.5 104.85
L 278.5 102.4
Q 276.65 102.35 275.4 103.15
M 317.35 131.45
Q 316.15 131 314.8 131 313.45 131 312.25 131.45 311.1 131.95 310.3 132.75 309.45 133.6 308.95 134.75 308.5 135.85 308.5 137.25 308.5 138.65 308.9 139.85 309.3 141.05 310.05 141.85 310.85 142.7 312 143.2 313.1 143.65 314.55 143.65 315.95 143.65 317.15 142.95 317.75 142.55 318.2 142.1 318.65 141.6 319 141
L 319.05 141.05
Q 318.95 144.8 317.9 146.65 316.85 148.45 314.75 148.45 314.05 148.45 313.45 148.25 312.85 148.05 312.35 147.7 311.35 146.95 311.2 145.55
L 308.9 145.55
Q 309.05 146.8 309.5 147.7 309.95 148.6 310.75 149.25 312.3 150.45 314.75 150.45 318.2 150.45 319.8 147.8 321.35 145.15 321.35 140.15 321.35 137.45 320.85 135.65 320.3 133.9 319.45 132.85 318.55 131.85 317.35 131.45
M 314.7 133.05
Q 315.65 133.05 316.4 133.4 317.15 133.75 317.65 134.35 318.15 134.95 318.4 135.75 318.65 136.5 318.65 137.4 318.65 138.25 318.35 139 318.1 139.8 317.6 140.35 317.1 140.95 316.35 141.3 315.6 141.6 314.75 141.6 313.9 141.6 313.2 141.3 312.5 140.95 312 140.4 311.5 139.8 311.25 139.1 310.95 138.35 310.95 137.55 310.95 136.7 311.15 135.85 311.35 135.05 311.8 134.4 312.25 133.8 312.95 133.4 313.7 133.05 314.7 133.05
M 290.85 135.65
Q 290.3 133.9 289.45 132.85 288.55 131.85 287.35 131.45 286.15 131 284.8 131 283.45 131 282.25 131.45 281.1 131.95 280.3 132.75 279.45 133.6 278.95 134.75 278.5 135.85 278.5 137.25 278.5 138.65 278.9 139.85 279.3 141.05 280.05 141.85 280.85 142.7 282 143.2 283.1 143.65 284.55 143.65 285.95 143.65 287.15 142.95 287.75 142.55 288.2 142.1 288.65 141.6 289 141
L 289.05 141.05
Q 288.95 144.8 287.9 146.65 286.85 148.45 284.75 148.45 284.05 148.45 283.45 148.25 282.85 148.05 282.35 147.7 281.35 146.95 281.2 145.55
L 278.9 145.55
Q 279.05 146.8 279.5 147.7 279.95 148.6 280.75 149.25 282.3 150.45 284.75 150.45 288.2 150.45 289.8 147.8 291.35 145.15 291.35 140.15 291.35 137.45 290.85 135.65
M 284.7 133.05
Q 285.65 133.05 286.4 133.4 287.15 133.75 287.65 134.35 288.15 134.95 288.4 135.75 288.65 136.5 288.65 137.4 288.65 138.25 288.35 139 288.1 139.8 287.6 140.35 287.1 140.95 286.35 141.3 285.6 141.6 284.75 141.6 283.9 141.6 283.2 141.3 282.5 140.95 282 140.4 281.5 139.8 281.25 139.1 280.95 138.35 280.95 137.55 280.95 136.7 281.15 135.85 281.35 135.05 281.8 134.4 282.25 133.8 282.95 133.4 283.7 133.05 284.7 133.05
M 295.3 132.75
Q 294.45 133.6 293.95 134.75 293.5 135.85 293.5 137.25 293.5 138.65 293.9 139.85 294.3 141.05 295.05 141.85 295.85 142.7 297 143.2 298.1 143.65 299.55 143.65 300.95 143.65 302.15 142.95 302.75 142.55 303.2 142.1 303.65 141.6 304 141
L 304.05 141.05
Q 303.95 144.8 302.9 146.65 301.85 148.45 299.75 148.45 299.05 148.45 298.45 148.25 297.85 148.05 297.35 147.7 296.35 146.95 296.2 145.55
L 293.9 145.55
Q 294.05 146.8 294.5 147.7 294.95 148.6 295.75 149.25 297.3 150.45 299.75 150.45 303.2 150.45 304.8 147.8 306.35 145.15 306.35 140.15 306.35 137.45 305.85 135.65 305.3 133.9 304.45 132.85 303.55 131.85 302.35 131.45 301.15 131 299.8 131 298.45 131 297.25 131.45 296.1 131.95 295.3 132.75
M 296.15 135.85
Q 296.35 135.05 296.8 134.4 297.25 133.8 297.95 133.4 298.7 133.05 299.7 133.05 300.65 133.05 301.4 133.4 302.15 133.75 302.65 134.35 303.15 134.95 303.4 135.75 303.65 136.5 303.65 137.4 303.65 138.25 303.35 139 303.1 139.8 302.6 140.35 302.1 140.95 301.35 141.3 300.6 141.6 299.75 141.6 298.9 141.6 298.2 141.3 297.5 140.95 297 140.4 296.5 139.8 296.25 139.1 295.95 138.35 295.95 137.55 295.95 136.7 296.15 135.85
M 201.25 143.75
L 201.25 141.55 193.45 141.55 193.45 143.75 201.25 143.75
M 166 132
L 163.7 132 163.7 136.2 161.35 136.2 161.35 138.2 163.7 138.2 163.7 147.1
Q 163.7 148.05 163.9 148.65 164.1 149.25 164.5 149.6 164.9 149.9 165.5 150.05
L 168.8 150.15 168.8 148.1 166.85 148.1 166.35 147.9
Q 166.15 147.8 166.1 147.55
L 166 146.9 166 138.2 168.8 138.2 168.8 136.2 166 136.2 166 132
M 178.1 135.85
L 176.8 136 175.55 136.45
Q 174.9 136.7 174.45 137.15 173.95 137.6 173.65 138.25
L 173.6 138.25 173.6 130.9 171.35 130.9 171.35 150.15 173.6 150.15 173.6 142.25
Q 173.6 141.3 173.9 140.55 174.15 139.7 174.65 139.15 175.15 138.55 175.95 138.2 176.7 137.9 177.75 137.9 178.4 137.9 178.95 138.1 179.45 138.25 179.85 138.65 180.2 139 180.4 139.55 180.6 140.05 180.6 140.7
L 180.6 150.15 182.9 150.15 182.9 140.95
Q 182.9 139.85 182.65 138.9 182.45 137.95 181.85 137.3 181.3 136.6 180.35 136.25 179.45 135.85 178.1 135.85
M 236.4 131
L 234.6 131 225.85 143.45 225.85 145.65 234.25 145.65 234.25 150.15 236.4 150.15 236.4 145.65 239 145.65 239 143.65 236.4 143.65 236.4 131
M 234.2 134.3
L 234.25 134.3 234.25 143.65 227.85 143.65 234.2 134.3
M 242.8 132.75
Q 241.95 133.6 241.45 134.75 241 135.85 241 137.25 241 138.65 241.4 139.85 241.8 141.05 242.55 141.85 243.35 142.7 244.5 143.2 245.6 143.65 247.05 143.65 248.45 143.65 249.65 142.95 250.25 142.55 250.7 142.1 251.15 141.6 251.5 141
L 251.55 141.05
Q 251.45 144.8 250.4 146.65 249.35 148.45 247.25 148.45 246.55 148.45 245.95 148.25 245.35 148.05 244.85 147.7 243.85 146.95 243.7 145.55
L 241.4 145.55
Q 241.55 146.8 242 147.7 242.45 148.6 243.25 149.25 244.8 150.45 247.25 150.45 250.7 150.45 252.3 147.8 253.85 145.15 253.85 140.15 253.85 137.45 253.35 135.65 252.8 133.9 251.95 132.85 251.05 131.85 249.85 131.45 248.65 131 247.3 131 245.95 131 244.75 131.45 243.6 131.95 242.8 132.75
M 243.65 135.85
Q 243.85 135.05 244.3 134.4 244.75 133.8 245.45 133.4 246.2 133.05 247.2 133.05 248.15 133.05 248.9 133.4 249.65 133.75 250.15 134.35 250.65 134.95 250.9 135.75 251.15 136.5 251.15 137.4 251.15 138.25 250.85 139 250.6 139.8 250.1 140.35 249.6 140.95 248.85 141.3 248.1 141.6 247.25 141.6 246.4 141.6 245.7 141.3 245 140.95 244.5 140.4 244 139.8 243.75 139.1 243.45 138.35 243.45 137.55 243.45 136.7 243.65 135.85
M 217.6 131
Q 216.1 131 215.05 131.45 214 131.9 213.3 132.6 212.6 133.35 212.2 134.3 211.75 135.3 211.55 136.35 211.35 137.45 211.3 138.55
L 211.3 142.95
Q 211.35 144.05 211.55 145.15 211.75 146.25 212.2 147.2 212.6 148.15 213.3 148.9 214 149.6 215.05 150.05 216.1 150.45 217.6 150.45 219.1 150.45 220.15 150.05 221.25 149.6 221.95 148.9 222.6 148.15 223.05 147.2 223.45 146.25 223.65 145.15 223.85 144.05 223.95 142.95
L 223.95 138.55
Q 223.85 137.45 223.65 136.35 223.45 135.25 223.05 134.3 222.6 133.35 221.95 132.6 221.25 131.9 220.15 131.45 219.1 131 217.6 131
M 214.15 135.8
Q 214.4 135 214.85 134.4 215.3 133.8 215.95 133.4 216.65 133.05 217.6 133.05 218.6 133.05 219.25 133.4 219.95 133.8 220.35 134.4 220.8 135 221.05 135.8
L 221.55 139.15 221.5 143.15
Q 221.4 144.5 221.05 145.65 220.7 146.85 219.85 147.65 219.05 148.45 217.6 148.45 216.15 148.45 215.35 147.65 214.55 146.85 214.15 145.65 213.8 144.5 213.75 143.15
L 213.8 137.45 214.15 135.8
M 242.7 114.95
L 242.7 116.7 254.45 116.7 254.45 114.65 245.55 114.65 254.1 104.3 254.1 102.75 243.25 102.75 243.25 104.75 251.1 104.75 242.7 114.95
M 241.2 109.75
Q 241.2 108.2 240.75 106.85 240.3 105.5 239.45 104.55 238.6 103.55 237.35 103 236.1 102.4 234.4 102.4 232.75 102.4 231.5 103 230.2 103.55 229.35 104.55 228.5 105.5 228.05 106.85 227.65 108.2 227.65 109.75 227.65 111.25 228.05 112.6 228.5 113.9 229.35 114.9 230.2 115.9 231.5 116.45 232.1 116.75 232.85 116.85
L 234.4 117 235.95 116.85
Q 236.7 116.75 237.35 116.45 238.6 115.9 239.45 114.9 240.3 113.9 240.75 112.6 241.2 111.25 241.2 109.75
M 234.4 104.45
Q 235.3 104.45 236.1 104.8 236.9 105.15 237.45 105.8 238.05 106.5 238.4 107.5 238.75 108.45 238.75 109.75 238.75 111 238.4 112 238.05 112.95 237.45 113.65 236.9 114.3 236.1 114.65 235.3 115 234.4 115 233.5 115 232.7 114.65 231.9 114.3 231.3 113.65 230.7 112.95 230.4 112 230.05 111 230.05 109.75 230.05 108.45 230.4 107.5 230.7 106.5 231.3 105.8 231.9 105.15 232.7 104.8 233.5 104.45 234.4 104.45
M 164.8 49.8
L 164.8 46.8 161.8 46.8 161.8 49.8 164.8 49.8
M 216.4 97.45
L 209.75 97.45 209.75 116.7 216.4 116.7
Q 218.8 116.7 220.55 116.05 222.3 115.35 223.4 114.05 224 113.45 224.4 112.65 224.85 111.85 225.1 110.9 225.65 109.05 225.65 106.6 225.65 104.3 225.05 102.55 224.45 100.85 223.25 99.7 222.05 98.55 220.3 98 218.6 97.45 216.4 97.45
M 222.75 103.85
Q 223.05 105.25 223.05 106.95 223.05 108.75 222.7 110 222.35 111.25 221.75 112.1 221.2 112.9 220.5 113.4 219.8 113.9 219.05 114.15 218.3 114.4 217.65 114.45
L 216.6 114.55 212.3 114.55 212.3 99.6 216.65 99.6
Q 218.4 99.6 219.65 100.1 220.85 100.6 221.6 101.55 222.4 102.5 222.75 103.85
M 215.8 64
L 212.95 64 205.45 83.25 208.05 83.25 210.2 77.45 218.35 77.45 220.45 83.25 223.3 83.25 215.8 64
M 214.3 66.3
L 214.35 66.3 217.55 75.3 211.05 75.3 214.3 66.3
M 230.8 69.3
L 230.8 71.3 233.15 71.3 233.15 80.2
Q 233.15 81.15 233.35 81.75 233.55 82.35 233.95 82.7 234.35 83 234.95 83.15
L 238.25 83.25 238.25 81.2 236.3 81.2 235.8 81
Q 235.6 80.9 235.55 80.65
L 235.45 80 235.45 71.3 238.25 71.3 238.25 69.3 235.45 69.3 235.45 65.1 233.15 65.1 233.15 69.3 230.8 69.3
M 197 98.8
Q 195.6 97.55 193.2 97.55 191.15 97.55 189.8 98.45 189.15 98.85 188.6 99.45 188.05 100 187.65 100.7 186.85 102.15 186.5 104 186.2 105.85 186.2 107.8 186.2 109.35 186.4 110.95 186.65 112.55 187.35 113.9 188.05 115.25 189.35 116.15 190.65 117 192.75 117 194.6 117 195.8 116.4 197.05 115.8 197.75 114.85 198.5 113.9 198.85 112.8 199.15 111.65 199.15 110.6 199.15 109.3 198.75 108.15 198.35 107 197.6 106.15 196.85 105.35 195.8 104.85 194.7 104.4 193.3 104.4
L 191.85 104.55
Q 191.15 104.7 190.55 105 189.35 105.55 188.55 106.9
L 188.45 106.85 188.7 104.45
Q 188.9 103.2 189.4 102.1 189.85 101 190.75 100.3 191.2 99.95 191.8 99.75 192.4 99.6 193.1 99.6 194.5 99.6 195.35 100.35 195.75 100.75 196 101.3 196.25 101.8 196.35 102.45
L 198.6 102.45
Q 198.5 101.25 198.1 100.35 197.7 99.45 197 98.8
M 192.9 106.4
Q 193.85 106.4 194.6 106.75 195.3 107.1 195.8 107.7 196.3 108.3 196.5 109.05 196.75 109.85 196.75 110.75 196.75 111.6 196.45 112.35 196.2 113.15 195.75 113.75 195.25 114.35 194.55 114.65 193.8 115 192.9 115 191.95 115 191.2 114.65 190.45 114.35 189.95 113.75 189.45 113.2 189.15 112.4 188.9 111.6 188.9 110.75 188.9 109.85 189.15 109.05 189.4 108.25 189.9 107.65 190.45 107.1 191.15 106.75 191.9 106.4 192.9 106.4
M 178.8 98
Q 177.1 97.45 174.9 97.45
L 168.25 97.45 168.25 116.7 174.9 116.7
Q 177.3 116.7 179.05 116.05 180.8 115.35 181.9 114.05 182.5 113.45 182.9 112.65 183.35 111.85 183.6 110.9 184.15 109.05 184.15 106.6 184.15 104.3 183.55 102.55 182.95 100.85 181.75 99.7 180.55 98.55 178.8 98
M 181.55 106.95
Q 181.55 108.75 181.2 110 180.85 111.25 180.25 112.1 179.7 112.9 179 113.4 178.3 113.9 177.55 114.15 176.8 114.4 176.15 114.45
L 175.1 114.55 170.8 114.55 170.8 99.6 175.15 99.6
Q 176.9 99.6 178.15 100.1 179.35 100.6 180.1 101.55 180.9 102.5 181.25 103.85 181.55 105.25 181.55 106.95
M 164.2 69.5
Q 163 70.05 162.1 71 161.25 72 160.75 73.3 160.3 74.65 160.3 76.25 160.35 77.8 160.75 79.2 161.15 80.5 162 81.5 162.85 82.45 164.05 83 165.3 83.55 166.95 83.55 168.15 83.55 169.15 83.25 170.1 82.95 170.9 82.35 172.45 81.15 172.95 78.8
L 170.65 78.8
Q 170.5 79.5 170.2 80 169.9 80.55 169.45 80.9 168.5 81.55 167.05 81.55 165.9 81.55 165.05 81.15 164.25 80.8 163.7 80.15 163.15 79.5 162.9 78.7 162.7 77.85 162.7 76.95
L 173.15 76.95
Q 173.2 75.7 172.9 74.3 172.65 72.9 171.9 71.7 171.15 70.5 169.95 69.75 169.3 69.35 168.55 69.15 167.75 68.95 166.85 68.95 165.4 68.95 164.2 69.5
M 163.05 73.4
Q 163.35 72.7 163.85 72.15 164.4 71.6 165.1 71.3 165.8 71 166.7 71 167.55 71 168.3 71.3 169 71.6 169.5 72.15 170.05 72.65 170.35 73.4 170.65 74.15 170.7 74.95
L 162.7 74.95
Q 162.75 74.15 163.05 73.4
M 193.65 67.05
L 193.7 67.05 198.1 83.25 200.75 83.25 205.95 64 203.35 64 199.45 80 199.4 80 195.15 64 192.35 64 188.05 80 187.95 80 184.2 64 181.6 64 186.5 83.25 189.2 83.25 193.65 67.05
M 189.25 35.5
Q 187.6 35.5 186.35 36.1 185.05 36.65 184.2 37.65 183.35 38.6 182.9 39.95 182.5 41.3 182.5 42.85 182.5 44.35 182.9 45.7 183.35 47 184.2 48 185.05 49 186.35 49.55 186.95 49.85 187.7 49.95
L 189.25 50.1 190.8 49.95
Q 191.55 49.85 192.2 49.55 193.45 49 194.3 48 195.15 47 195.6 45.7 196.05 44.35 196.05 42.85 196.05 41.3 195.6 39.95 195.15 38.6 194.3 37.65 193.45 36.65 192.2 36.1 190.95 35.5 189.25 35.5
M 190.95 37.9
Q 191.75 38.25 192.3 38.9 192.9 39.6 193.25 40.6 193.6 41.55 193.6 42.85 193.6 44.1 193.25 45.1 192.9 46.05 192.3 46.75 191.75 47.4 190.95 47.75 190.15 48.1 189.25 48.1 188.35 48.1 187.55 47.75 186.75 47.4 186.15 46.75 185.55 46.05 185.25 45.1 184.9 44.1 184.9 42.85 184.9 41.55 185.25 40.6 185.55 39.6 186.15 38.9 186.75 38.25 187.55 37.9 188.35 37.55 189.25 37.55 190.15 37.55 190.95 37.9
M 176.85 35.8
Q 175.8 35.5 174.6 35.5 172.95 35.5 171.7 36.1 170.5 36.7 169.65 37.7 168.85 38.7 168.4 40.05 168.05 41.45 168.05 43 168.05 44.55 168.45 45.85 168.85 47.2 169.7 48.15 170.5 49.05 171.75 49.6 172.95 50.1 174.55 50.1 175.9 50.1 176.95 49.75 178 49.4 178.8 48.7 179.55 48 180.05 47 180.5 46 180.7 44.7
L 178.35 44.7
Q 178.15 46.3 177.2 47.2 176.25 48.1 174.55 48.1 173.45 48.1 172.65 47.65 171.9 47.25 171.4 46.5 170.9 45.8 170.7 44.9 170.45 43.95 170.45 43 170.45 41.95 170.65 40.95 170.9 40 171.4 39.2 171.9 38.45 172.7 38 173.55 37.55 174.8 37.55 175.55 37.55 176.1 37.7 176.7 37.9 177.1 38.3 177.55 38.65 177.85 39.15 178.1 39.65 178.25 40.3
L 180.65 40.3
Q 180.5 39.1 180 38.15 179.45 37.3 178.7 36.7 177.85 36.1 176.85 35.8
M 225.2 46.8
L 222.2 46.8 222.2 49.8 225.2 49.8 225.2 46.8
M 238.45 36.2
Q 237.7 35.8 236.75 35.65
L 234.85 35.5
Q 233.7 35.5 232.65 35.75 231.6 36 230.8 36.55 230 37.1 229.5 38 229 38.9 228.95 40.2
L 231.25 40.2
Q 231.35 38.65 232.3 38.1 233.3 37.55 234.75 37.55
L 235.85 37.6
Q 236.4 37.7 236.85 37.95 237.25 38.2 237.55 38.65 237.85 39.1 237.85 39.85 237.85 40.5 237.45 40.85 237.1 41.2 236.45 41.35
L 231.4 42.3
Q 230.55 42.55 229.9 43.05 229.25 43.5 228.8 44.25 228.45 45.05 228.45 46.2 228.45 47.25 228.8 48 229.15 48.75 229.75 49.2 230.4 49.65 231.25 49.9 232.1 50.1 233.05 50.1 234.5 50.1 235.75 49.6 236.4 49.35 236.95 48.95 237.5 48.55 237.95 47.95 237.95 49.1 238.5 49.6 239 50.1 239.9 50.1 240.95 50.1 241.55 49.75
L 241.55 47.95 240.85 48.05
Q 240.3 48.05 240.2 47.7
L 240.1 46.5 240.1 39.35
Q 240.1 38.15 239.65 37.4 239.2 36.6 238.45 36.2
M 232.55 47.95
Q 232.05 47.85 231.7 47.6 231.3 47.35 231.1 47 230.85 46.6 230.85 46.05 230.85 45.15 231.25 44.65 231.65 44.15 232.25 43.9 232.9 43.65 233.65 43.5
L 236.7 43.05
Q 237.4 42.9 237.8 42.6
L 237.8 44.9
Q 237.8 45.4 237.6 45.95 237.35 46.5 236.8 47 236.3 47.45 235.5 47.75 234.7 48.05 233.55 48.05
L 232.55 47.95
M 217 36.45
Q 216.35 35.95 215.5 35.75 214.65 35.5 213.6 35.5 212.25 35.5 211.1 36.15 210.5 36.45 210.05 36.9 209.6 37.35 209.25 37.9 209 37.25 208.65 36.8 208.25 36.35 207.75 36.05 206.7 35.5 205.4 35.5 203.9 35.5 202.8 36.1 201.65 36.7 200.9 37.9
L 200.85 37.9 200.85 35.85 198.7 35.85 198.7 49.8 200.95 49.8 200.95 41.1
Q 200.95 40.7 201.2 40.1 201.4 39.5 201.85 38.9 202.25 38.35 203 37.95 203.7 37.55 204.7 37.55 205.5 37.55 206 37.8 206.5 38 206.75 38.4 207.1 38.85 207.2 39.4
L 207.3 40.65 207.3 49.8 209.6 49.8 209.6 41.1
Q 209.6 39.5 210.6 38.5 211.55 37.55 213.25 37.55 214.1 37.55 214.6 37.8 215.15 38.05 215.45 38.45 215.75 38.85 215.85 39.45
L 215.95 40.65 215.95 49.8 218.25 49.8 218.25 39.55
Q 218.25 38.5 217.9 37.7 217.6 36.95 217 36.45
M 291.65 71.1
Q 290.8 72.05 290.35 73.4 289.95 74.75 289.95 76.3 289.95 77.8 290.35 79.15 290.8 80.45 291.65 81.45 292.5 82.45 293.8 83 294.4 83.3 295.15 83.4
L 296.7 83.55 298.25 83.4
Q 299 83.3 299.65 83 300.9 82.45 301.75 81.45 302.6 80.45 303.05 79.15 303.5 77.8 303.5 76.3 303.5 74.75 303.05 73.4 302.6 72.05 301.75 71.1 300.9 70.1 299.65 69.55 298.4 68.95 296.7 68.95 295.05 68.95 293.8 69.55 292.5 70.1 291.65 71.1
M 292.7 74.05
Q 293 73.05 293.6 72.35 294.2 71.7 295 71.35 295.8 71 296.7 71 297.6 71 298.4 71.35 299.2 71.7 299.75 72.35 300.35 73.05 300.7 74.05 301.05 75 301.05 76.3 301.05 77.55 300.7 78.55 300.35 79.5 299.75 80.2 299.2 80.85 298.4 81.2 297.6 81.55 296.7 81.55 295.8 81.55 295 81.2 294.2 80.85 293.6 80.2 293 79.5 292.7 78.55 292.35 77.55 292.35 76.3 292.35 75 292.7 74.05
M 318 69.3
L 314.95 69.3 308.55 75.4 308.55 64 306.25 64 306.25 83.25 308.55 83.25 308.55 77.95 310.7 75.95 315.5 83.25 318.4 83.25 312.45 74.35 318 69.3
M 282.1 69.3
L 282.1 83.25 284.4 83.25 284.4 77.05
Q 284.4 75.7 284.65 74.65 284.95 73.6 285.55 72.9 286.1 72.15 287.1 71.8 288.05 71.4 289.45 71.4
L 289.45 68.95
Q 287.6 68.9 286.35 69.7 285.75 70.15 285.25 70.75 284.75 71.4 284.3 72.25
L 284.25 72.25 284.25 69.3 282.1 69.3
M 246.8 68.95
Q 245.15 68.95 243.9 69.55 242.6 70.1 241.75 71.1 240.9 72.05 240.45 73.4 240.05 74.75 240.05 76.3 240.05 77.8 240.45 79.15 240.9 80.45 241.75 81.45 242.6 82.45 243.9 83 244.5 83.3 245.25 83.4
L 246.8 83.55 248.35 83.4
Q 249.1 83.3 249.75 83 251 82.45 251.85 81.45 252.7 80.45 253.15 79.15 253.6 77.8 253.6 76.3 253.6 74.75 253.15 73.4 252.7 72.05 251.85 71.1 251 70.1 249.75 69.55 248.5 68.95 246.8 68.95
M 243.7 72.35
Q 244.3 71.7 245.1 71.35 245.9 71 246.8 71 247.7 71 248.5 71.35 249.3 71.7 249.85 72.35 250.45 73.05 250.8 74.05 251.15 75 251.15 76.3 251.15 77.55 250.8 78.55 250.45 79.5 249.85 80.2 249.3 80.85 248.5 81.2 247.7 81.55 246.8 81.55 245.9 81.55 245.1 81.2 244.3 80.85 243.7 80.2 243.1 79.5 242.8 78.55 242.45 77.55 242.45 76.3 242.45 75 242.8 74.05 243.1 73.05 243.7 72.35
M 275.15 64.25
L 273.85 64.05 264.1 64 264.1 83.25 273.4 83.25
Q 274.85 83.25 275.95 82.8 277.05 82.3 277.8 81.55 278.5 80.75 278.9 79.75 279.3 78.75 279.3 77.7 279.3 75.95 278.35 74.7 277.85 74.05 277.15 73.65 276.5 73.25 275.6 73.05
L 275.6 73
Q 276.3 72.75 276.85 72.35 277.35 71.9 277.75 71.35 278.1 70.8 278.3 70.15 278.45 69.45 278.45 68.7 278.45 67.25 277.8 66.25 277.15 65.25 276.2 64.65 275.75 64.4 275.15 64.25
M 266.65 72.25
L 266.65 66.15 273.4 66.25
Q 274.15 66.3 274.7 66.65 275.25 66.95 275.6 67.55 275.9 68.15 275.9 69.2 275.9 69.95 275.65 70.55 275.4 71.1 274.95 71.5 274 72.25 271.8 72.25
L 266.65 72.25
M 274.1 74.6
Q 274.85 74.7 275.45 75.1 276 75.45 276.35 76.05 276.7 76.7 276.7 77.65 276.7 78.45 276.5 79.1 276.25 79.7 275.75 80.2 274.8 81.1 273.1 81.1
L 266.65 81.1 266.65 74.4 272.55 74.4 274.1 74.6
M 269.15 30.55
L 266.6 30.55 266.6 49.8 269.15 49.8 269.15 30.55
M 245.9 35.85
L 243.65 35.85 243.65 45.05
Q 243.65 46.15 243.85 47.1 244.1 48 244.65 48.7 245.2 49.35 246.15 49.75 247.05 50.1 248.45 50.1 249.95 50.1 251.1 49.5 252.25 48.9 252.95 47.6
L 253.05 47.6 253.05 49.8 255.2 49.8 255.2 35.85 252.9 35.85 252.9 43.7
Q 252.9 44.65 252.65 45.45 252.4 46.25 251.85 46.85 251.35 47.45 250.55 47.75 249.8 48.1 248.75 48.1 247.45 48.1 246.65 47.35 246.3 46.95 246.1 46.45 245.9 45.95 245.9 45.3
L 245.9 35.85
M 322.45 30.65
L 320.7 30.65
Q 320.5 31.75 320 32.45 319.5 33.15 318.75 33.55 318 33.95 317.1 34.1
L 315.2 34.25 315.2 36.1 320.15 36.1 320.15 49.8 322.45 49.8 322.45 30.65
M 286.95 32.8
Q 285.75 31.65 284 31.1 282.3 30.55 280.1 30.55
L 273.45 30.55 273.45 49.8 280.1 49.8
Q 282.5 49.8 284.25 49.15 286 48.45 287.1 47.15 287.7 46.55 288.1 45.75 288.55 44.95 288.8 44 289.35 42.15 289.35 39.7 289.35 37.4 288.75 35.65 288.15 33.95 286.95 32.8
M 285.3 34.65
Q 286.1 35.6 286.45 36.95 286.75 38.35 286.75 40.05 286.75 41.85 286.4 43.1 286.05 44.35 285.45 45.2 284.9 46 284.2 46.5 283.5 47 282.75 47.25 282 47.5 281.35 47.55
L 280.3 47.65 276 47.65 276 32.7 280.35 32.7
Q 282.1 32.7 283.35 33.2 284.55 33.7 285.3 34.65
M 303.25 31
L 302.45 36.5 299.45 36.5 299.45 38.35 302.25 38.35 301.65 42.4 298.75 42.4 298.75 44.25 301.4 44.25 300.6 49.8 302.45 49.8 303.25 44.25 306.6 44.25 305.8 49.8 307.65 49.8 308.45 44.25 311.2 44.25 311.2 42.4 308.75 42.4 309.3 38.35 311.95 38.35 311.95 36.5 309.55 36.5 310.3 31 308.45 31 307.65 36.5 304.35 36.5 305.1 31 303.25 31
M 304.1 38.35
L 307.45 38.35 306.85 42.4 303.5 42.4 304.1 38.35
M 356.95 132.85
Q 356.05 131.85 354.85 131.45 353.65 131 352.3 131 350.95 131 349.75 131.45 348.6 131.95 347.8 132.75 346.95 133.6 346.45 134.75 346 135.85 346 137.25 346 138.65 346.4 139.85 346.8 141.05 347.55 141.85 348.35 142.7 349.5 143.2 350.6 143.65 352.05 143.65 353.45 143.65 354.65 142.95 355.25 142.55 355.7 142.1 356.15 141.6 356.5 141
L 356.55 141.05
Q 356.45 144.8 355.4 146.65 354.35 148.45 352.25 148.45 351.55 148.45 350.95 148.25 350.35 148.05 349.85 147.7 348.85 146.95 348.7 145.55
L 346.4 145.55
Q 346.55 146.8 347 147.7 347.45 148.6 348.25 149.25 349.8 150.45 352.25 150.45 355.7 150.45 357.3 147.8 358.85 145.15 358.85 140.15 358.85 137.45 358.35 135.65 357.8 133.9 356.95 132.85
M 355.15 134.35
Q 355.65 134.95 355.9 135.75 356.15 136.5 356.15 137.4 356.15 138.25 355.85 139 355.6 139.8 355.1 140.35 354.6 140.95 353.85 141.3 353.1 141.6 352.25 141.6 351.4 141.6 350.7 141.3 350 140.95 349.5 140.4 349 139.8 348.75 139.1 348.45 138.35 348.45 137.55 348.45 136.7 348.65 135.85 348.85 135.05 349.3 134.4 349.75 133.8 350.45 133.4 351.2 133.05 352.2 133.05 353.15 133.05 353.9 133.4 354.65 133.75 355.15 134.35
M 337.3 131
Q 335.95 131 334.75 131.45 333.6 131.95 332.8 132.75 331.95 133.6 331.45 134.75 331 135.85 331 137.25 331 138.65 331.4 139.85 331.8 141.05 332.55 141.85 333.35 142.7 334.5 143.2 335.6 143.65 337.05 143.65 338.45 143.65 339.65 142.95 340.25 142.55 340.7 142.1 341.15 141.6 341.5 141
L 341.55 141.05
Q 341.45 144.8 340.4 146.65 339.35 148.45 337.25 148.45 336.55 148.45 335.95 148.25 335.35 148.05 334.85 147.7 333.85 146.95 333.7 145.55
L 331.4 145.55
Q 331.55 146.8 332 147.7 332.45 148.6 333.25 149.25 334.8 150.45 337.25 150.45 340.7 150.45 342.3 147.8 343.85 145.15 343.85 140.15 343.85 137.45 343.35 135.65 342.8 133.9 341.95 132.85 341.05 131.85 339.85 131.45 338.65 131 337.3 131
M 337.2 133.05
Q 338.15 133.05 338.9 133.4 339.65 133.75 340.15 134.35 340.65 134.95 340.9 135.75 341.15 136.5 341.15 137.4 341.15 138.25 340.85 139 340.6 139.8 340.1 140.35 339.6 140.95 338.85 141.3 338.1 141.6 337.25 141.6 336.4 141.6 335.7 141.3 335 140.95 334.5 140.4 334 139.8 333.75 139.1 333.45 138.35 333.45 137.55 333.45 136.7 333.65 135.85 333.85 135.05 334.3 134.4 334.75 133.8 335.45 133.4 336.2 133.05 337.2 133.05
M 380.35 147.15
L 377.35 147.15 377.35 150.15 380.35 150.15 380.35 147.15
M 373.35 135.65
Q 372.8 133.9 371.95 132.85 371.05 131.85 369.85 131.45 368.65 131 367.3 131 365.95 131 364.75 131.45 363.6 131.95 362.8 132.75 361.95 133.6 361.45 134.75 361 135.85 361 137.25 361 138.65 361.4 139.85 361.8 141.05 362.55 141.85 363.35 142.7 364.5 143.2 365.6 143.65 367.05 143.65 368.45 143.65 369.65 142.95 370.25 142.55 370.7 142.1 371.15 141.6 371.5 141
L 371.55 141.05
Q 371.45 144.8 370.4 146.65 369.35 148.45 367.25 148.45 366.55 148.45 365.95 148.25 365.35 148.05 364.85 147.7 363.85 146.95 363.7 145.55
L 361.4 145.55
Q 361.55 146.8 362 147.7 362.45 148.6 363.25 149.25 364.8 150.45 367.25 150.45 370.7 150.45 372.3 147.8 373.85 145.15 373.85 140.15 373.85 137.45 373.35 135.65
M 365.45 133.4
Q 366.2 133.05 367.2 133.05 368.15 133.05 368.9 133.4 369.65 133.75 370.15 134.35 370.65 134.95 370.9 135.75 371.15 136.5 371.15 137.4 371.15 138.25 370.85 139 370.6 139.8 370.1 140.35 369.6 140.95 368.85 141.3 368.1 141.6 367.25 141.6 366.4 141.6 365.7 141.3 365 140.95 364.5 140.4 364 139.8 363.75 139.1 363.45 138.35 363.45 137.55 363.45 136.7 363.65 135.85 363.85 135.05 364.3 134.4 364.75 133.8 365.45 133.4
M 384.9 83.25
L 384.9 64 382.6 64 382.6 83.25 384.9 83.25
M 378.95 69.3
L 376.65 69.3 376.65 83.25 378.95 83.25 378.95 69.3
M 378.95 64
L 376.65 64 376.65 66.8 378.95 66.8 378.95 64
M 390.85 64
L 388.55 64 388.55 83.25 390.85 83.25 390.85 64
M 327.65 69.15
Q 326.85 68.95 325.95 68.95 324.5 68.95 323.3 69.5 322.1 70.05 321.2 71 320.35 72 319.85 73.3 319.4 74.65 319.4 76.25 319.45 77.8 319.85 79.2 320.25 80.5 321.1 81.5 321.95 82.45 323.15 83 324.4 83.55 326.05 83.55 327.25 83.55 328.25 83.25 329.2 82.95 330 82.35 331.55 81.15 332.05 78.8
L 329.75 78.8
Q 329.6 79.5 329.3 80 329 80.55 328.55 80.9 327.6 81.55 326.15 81.55 325 81.55 324.15 81.15 323.35 80.8 322.8 80.15 322.25 79.5 322 78.7 321.8 77.85 321.8 76.95
L 332.25 76.95
Q 332.3 75.7 332 74.3 331.75 72.9 331 71.7 330.25 70.5 329.05 69.75 328.4 69.35 327.65 69.15
M 324.2 71.3
Q 324.9 71 325.8 71 326.65 71 327.4 71.3 328.1 71.6 328.6 72.15 329.15 72.65 329.45 73.4 329.75 74.15 329.8 74.95
L 321.8 74.95
Q 321.85 74.15 322.15 73.4 322.45 72.7 322.95 72.15 323.5 71.6 324.2 71.3
M 346.15 74.05
Q 346.15 72.95 345.9 72 345.7 71.05 345.1 70.4 344.55 69.7 343.6 69.35 342.7 68.95 341.35 68.95 339.75 68.95 338.65 69.6 337.5 70.25 336.8 71.5
L 336.75 71.5 336.75 69.3 334.6 69.3 334.6 83.25 336.85 83.25 336.85 75.35
Q 336.85 74.4 337.15 73.65 337.4 72.8 337.9 72.25 338.4 71.65 339.2 71.3 339.95 71 341 71 341.65 71 342.2 71.2 342.7 71.35 343.1 71.75 343.45 72.1 343.65 72.65 343.85 73.15 343.85 73.8
L 343.85 83.25 346.15 83.25 346.15 74.05
M 360 64
L 357.45 64 357.45 83.25 360 83.25 360 74.4 370.15 74.4 370.15 83.25 372.75 83.25 372.75 64 370.15 64 370.15 72.25 360 72.25 360 64
M 343.9 40.9
Q 343.9 42.45 344.1 44.05 344.35 45.65 345.05 47 345.75 48.35 347.05 49.25 348.35 50.1 350.45 50.1 352.3 50.1 353.5 49.5 354.75 48.9 355.45 47.95 356.2 47 356.55 45.9 356.85 44.75 356.85 43.7 356.85 42.4 356.45 41.25 356.05 40.1 355.3 39.25 354.55 38.45 353.5 37.95 352.4 37.5 351 37.5
L 349.55 37.65
Q 348.85 37.8 348.25 38.1 347.05 38.65 346.25 40
L 346.15 39.95 346.4 37.55
Q 346.6 36.3 347.1 35.2 347.55 34.1 348.45 33.4 348.9 33.05 349.5 32.85 350.1 32.7 350.8 32.7 352.2 32.7 353.05 33.45 353.45 33.85 353.7 34.4 353.95 34.9 354.05 35.55
L 356.3 35.55
Q 356.2 34.35 355.8 33.45 355.4 32.55 354.7 31.9 353.3 30.65 350.9 30.65 348.85 30.65 347.5 31.55 346.85 31.95 346.3 32.55 345.75 33.1 345.35 33.8 344.55 35.25 344.2 37.1 343.9 38.95 343.9 40.9
M 350.6 39.5
Q 351.55 39.5 352.3 39.85 353 40.2 353.5 40.8 354 41.4 354.2 42.15 354.45 42.95 354.45 43.85 354.45 44.7 354.15 45.45 353.9 46.25 353.45 46.85 352.95 47.45 352.25 47.75 351.5 48.1 350.6 48.1 349.65 48.1 348.9 47.75 348.15 47.45 347.65 46.85 347.15 46.3 346.85 45.5 346.6 44.7 346.6 43.85 346.6 42.95 346.85 42.15 347.1 41.35 347.6 40.75 348.15 40.2 348.85 39.85 349.6 39.5 350.6 39.5
M 340.55 33
L 340.55 31 331.1 31 329.3 40.9 331.3 41
Q 331.95 40.2 332.85 39.7 333.7 39.2 334.85 39.2 335.8 39.2 336.6 39.55 337.4 39.85 338 40.45 338.55 41 338.85 41.8 339.15 42.6 339.15 43.55 339.15 44.7 338.85 45.55 338.5 46.4 337.95 46.95 337.4 47.55 336.65 47.8 335.9 48.1 335.1 48.1 334.25 48.1 333.55 47.85 332.8 47.6 332.3 47.1 331.75 46.65 331.45 46 331.15 45.35 331.1 44.65
L 328.8 44.65
Q 328.85 45.95 329.3 46.95 329.8 48 330.65 48.7 331.45 49.35 332.55 49.75 333.65 50.1 334.9 50.1 336.6 50.1 337.85 49.6 339.1 49.05 339.9 48.15 340.75 47.25 341.2 46.1 341.6 44.95 341.6 43.75 341.6 42.1 341.1 40.85 340.6 39.65 339.8 38.8 338.95 38 337.8 37.6 336.7 37.2 335.4 37.2 334.45 37.2 333.45 37.55 332.45 37.85 331.85 38.55
L 331.8 38.5 332.8 33 340.55 33
M 365.05 32.7
Q 365.8 32.7 366.5 32.95 367.15 33.15 367.65 33.6 368.15 34.1 368.45 34.7 368.75 35.35 368.75 36.15 368.75 37.15 368.45 37.9 368.15 38.65 367.55 39.3 366.9 39.95 366 40.6
L 361.95 43.25
Q 361.05 43.9 360.3 44.8 359.6 45.7 359.1 46.9 358.65 48.1 358.5 49.8
L 371 49.8 371 47.75 361.15 47.75
Q 361.35 46.9 361.85 46.2 362.4 45.5 363.1 44.9
L 368.3 41.55
Q 369.1 40.9 369.75 40.15 370.4 39.35 370.8 38.4 371.2 37.45 371.2 36.15 371.2 34.8 370.7 33.8 370.25 32.75 369.45 32.05 368.6 31.4 367.55 31.05 366.45 30.65 365.2 30.65 363.7 30.65 362.5 31.15 361.3 31.7 360.5 32.6 359.7 33.5 359.35 34.75 358.95 35.95 359.05 37.45
L 361.35 37.45
Q 361.3 36.55 361.5 35.7 361.7 34.85 362.15 34.2 362.6 33.5 363.35 33.1 364.05 32.7 365.05 32.7
M 417.6 64
L 415.15 64 415.15 79.6 415.1 79.6 404.95 64 402.25 64 402.25 83.25 404.65 83.25 404.65 67.75 404.7 67.75 414.8 83.25 417.6 83.25 417.6 64
M 440 64
L 437.4 64 442.3 83.25 445 83.25 449.45 67.05 449.5 67.05 453.9 83.25 456.55 83.25 461.75 64 459.15 64 455.25 80 455.2 80 450.95 64 448.15 64 443.85 80 443.75 80 440 64
M 434.7 66.9
Q 434.15 65.75 433.15 65 432.2 64.2 430.95 63.85 429.65 63.5 428.2 63.5 426.85 63.5 425.6 63.85 424.35 64.2 423.35 64.85 422.4 65.55 421.8 66.65 421.5 67.15 421.35 67.8 421.2 68.45 421.2 69.15 421.2 70.5 421.7 71.35 422.25 72.25 423.1 72.8 424 73.35 425.1 73.7
L 429.6 74.75
Q 430.75 75 431.6 75.4 432.5 75.8 433 76.4 433.55 77.05 433.55 78.05 433.55 79.1 433.1 79.75 432.65 80.45 431.95 80.85 431.25 81.2 430.4 81.4 429.5 81.55 428.65 81.55 427.55 81.55 426.55 81.25 425.5 81 424.75 80.45 424 79.9 423.5 79 423.05 78.1 423.05 76.9
L 420.6 76.9
Q 420.6 78.65 421.25 79.95 421.55 80.6 422 81.1 422.4 81.65 422.95 82.05 424.05 82.85 425.5 83.3 426.95 83.7 428.55 83.7 429.9 83.7 431.25 83.35 432.55 83.05 433.65 82.35 434.7 81.7 435.4 80.6 436.1 79.5 436.1 77.95 436.1 76.55 435.55 75.6 435.05 74.65 434.15 74 433.3 73.4 432.2 73.05
L 427.65 71.9
Q 426.55 71.65 425.7 71.3 424.8 70.95 424.3 70.4 423.75 69.85 423.75 68.95 423.75 68 424.1 67.4 424.5 66.75 425.1 66.4 425.7 66 426.5 65.85 427.25 65.7 428.1 65.7 430.1 65.7 431.35 66.6 432.65 67.55 432.85 69.6
L 435.3 69.6
Q 435.25 68 434.7 66.9 Z"/>
</g>
</defs>

<g transform="matrix( -0.99945068359375, 0, 0, 1, 794.8,-280) ">
<use xlink:href="#Layer3_0_MEMBER_0_FILL"/>
</g>

<g transform="matrix( -1.00042724609375, 0, 0, 1, 500.2,0) ">
<use xlink:href="#Layer3_0_MEMBER_1_FILL"/>
</g>

<g transform="matrix( 1, 0, 0, 1, 0,0) ">
<use xlink:href="#Layer3_1_FILL"/>
</g>
</svg>
