<?xml version="1.0" encoding="UTF-8" standalone="no"?>
<!DOCTYPE svg PUBLIC "-//W3C//DTD SVG 1.1//EN" "http://www.w3.org/Graphics/SVG/1.1/DTD/svg11.dtd">
<svg width="100%" height="100%" viewBox="0 0 333 107" version="1.1" xmlns="http://www.w3.org/2000/svg" xmlns:xlink="http://www.w3.org/1999/xlink" xml:space="preserve" style="fill-rule:evenodd;clip-rule:evenodd;stroke-linejoin:round;stroke-miterlimit:1.41421;">
    <g id="Layer_1.-2">
        <g transform="matrix(0.494415,0,0,1,168.309,0)">
            <rect x="0" y="0" width="332.9" height="106.4"/>
        </g>
        <rect x="171" y="2.6" width="159.2" height="101.1" style="fill:white;"/>
        <rect x="173.6" y="87.3" width="153.9" height="13.8" style="fill:rgb(247,182,0);"/>
        <rect x="173.6" y="5.3" width="153.9" height="13.8" style="fill:rgb(26,31,113);"/>
        <path d="M235.2,34.3L219.3,72.2L208.9,72.2L201.1,41.9C200.6,40 200.2,39.4 198.8,38.6C195.719,37.117 192.458,36.041 189.1,35.4L189.3,34.3L206,34.3C208.247,34.31 210.171,35.977 210.5,38.2L214.6,60.1L224.8,34.3L235.2,34.3ZM275.9,59.8C275.9,49.8 262.1,49.2 262.2,44.8C262.2,43.4 263.5,42 266.4,41.6C269.727,41.289 273.077,41.876 276.1,43.3L277.8,35.3C274.864,34.173 271.745,33.596 268.6,33.6C258.9,33.6 252.1,38.8 252,46.1C251.9,51.6 256.9,54.6 260.6,56.4C264.3,58.2 265.7,59.5 265.7,61.1C265.7,63.6 262.6,64.8 259.8,64.8C256.282,64.897 252.799,64.07 249.7,62.4L247.9,70.7C251.363,72.09 255.069,72.77 258.8,72.7C269.1,72.8 275.8,67.7 275.9,59.8M301.5,72.2L310.6,72.2L302.7,34.3L294.3,34.3C292.461,34.278 290.787,35.394 290.1,37.1L275.3,72.2L285.6,72.2L287.6,66.5L300.2,66.5L301.5,72.2ZM290.5,58.8L295.7,44.6L298.7,58.8L290.5,58.8ZM249.2,34.3L241.1,72.2L231.3,72.2L239.4,34.3L249.2,34.3Z" style="fill:rgb(26,31,113);fill-rule:nonzero;"/>
        <path id="__Compound_Path_" d="M46.9,97.5L46.9,91.5C46.91,91.395 46.914,91.289 46.914,91.183C46.914,89.268 45.339,87.693 43.424,87.693C43.35,87.693 43.275,87.695 43.2,87.7C41.852,87.646 40.566,88.289 39.8,89.4C39.133,88.284 37.898,87.628 36.6,87.7C35.461,87.65 34.37,88.177 33.7,89.1L33.7,87.9L31.8,87.9L31.8,97.5L33.7,97.5L33.7,92C33.689,91.911 33.684,91.822 33.684,91.733C33.684,90.504 34.695,89.493 35.924,89.493C35.983,89.493 36.041,89.495 36.1,89.5C37.5,89.5 38.3,90.4 38.3,92L38.3,97.5L40.2,97.5L40.2,92C40.189,91.911 40.184,91.822 40.184,91.733C40.184,90.504 41.195,89.493 42.424,89.493C42.483,89.493 42.541,89.495 42.6,89.5C44,89.5 44.8,90.4 44.8,92L44.8,97.5L46.9,97.5ZM78.1,88L74.6,88L74.6,85.1L72.7,85.1L72.7,88L70.7,88L70.7,89.7L72.7,89.7L72.7,94.2C72.7,96.4 73.5,97.7 75.9,97.7C76.811,97.682 77.703,97.442 78.5,97L77.9,95.3C77.361,95.637 76.736,95.811 76.1,95.8C76.062,95.803 76.023,95.805 75.985,95.805C75.217,95.805 74.585,95.173 74.585,94.405C74.585,94.336 74.59,94.268 74.6,94.2L74.6,89.6L78.1,89.6L78.1,88L78.1,88ZM95.9,87.7C94.849,87.678 93.86,88.211 93.3,89.1L93.3,87.9L91.4,87.9L91.4,97.5L93.3,97.5L93.3,92.1C93.3,90.5 94.1,89.5 95.4,89.5C95.839,89.518 96.276,89.585 96.7,89.7L97.3,87.9C96.842,87.784 96.372,87.717 95.9,87.7ZM69,88.7C67.829,87.984 66.471,87.636 65.1,87.7C62.7,87.7 61.2,88.8 61.2,90.7C61.2,92.3 62.3,93.2 64.4,93.5L65.4,93.6C66.5,93.8 67.2,94.2 67.2,94.7C67.2,95.4 66.4,95.9 64.9,95.9C63.753,95.924 62.629,95.573 61.7,94.9L60.7,96.4C61.915,97.203 63.344,97.621 64.8,97.6C67.6,97.6 69.1,96.3 69.1,94.5C69.1,92.7 67.9,92 65.8,91.7L64.8,91.6C63.9,91.5 63.1,91.2 63.1,90.6C63.1,90 63.9,89.4 65,89.4C66.046,89.446 67.07,89.719 68,90.2L69,88.7ZM98.1,92.7C98.094,92.796 98.091,92.892 98.091,92.989C98.091,95.578 100.222,97.709 102.811,97.709C102.908,97.709 103.004,97.706 103.1,97.7C104.33,97.765 105.541,97.373 106.5,96.6L105.5,95.1C104.794,95.676 103.911,95.994 103,96C101.34,95.869 100.043,94.466 100.043,92.8C100.043,91.134 101.34,89.731 103,89.6C103.911,89.606 104.794,89.924 105.5,90.5L106.5,89C105.541,88.227 104.33,87.835 103.1,87.9C102.923,87.879 102.745,87.868 102.566,87.868C100.109,87.868 98.086,89.89 98.086,92.348C98.086,92.466 98.091,92.583 98.1,92.7ZM84.6,87.7C81.8,87.7 79.9,89.7 79.9,92.7C79.893,92.801 79.89,92.903 79.89,93.005C79.89,95.583 82.012,97.705 84.59,97.705C84.66,97.705 84.73,97.703 84.8,97.7C86.211,97.729 87.589,97.27 88.7,96.4L87.7,95C86.897,95.622 85.916,95.973 84.9,96C83.435,96.056 82.161,94.957 82,93.5L89.1,93.5L89.1,92.7C89.1,89.7 87.3,87.7 84.6,87.7ZM84.6,89.5C84.637,89.498 84.673,89.497 84.71,89.497C86.021,89.497 87.1,90.576 87.1,91.887C87.1,91.892 87.1,91.896 87.1,91.9L81.9,91.9C81.991,90.505 83.204,89.426 84.6,89.5ZM58.7,92.7L58.7,87.9L56.8,87.9L56.8,89.1C56.058,88.156 54.899,87.633 53.7,87.7C50.957,87.7 48.7,89.957 48.7,92.7C48.7,95.443 50.957,97.7 53.7,97.7C54.899,97.767 56.058,97.244 56.8,96.3L56.8,97.5L58.7,97.5L58.7,92.7ZM50.9,92.7C51.005,91.133 52.323,89.9 53.893,89.9C55.539,89.9 56.893,91.254 56.893,92.9C56.893,94.543 55.543,95.896 53.9,95.9C53.876,95.901 53.852,95.901 53.828,95.901C52.216,95.901 50.888,94.574 50.888,92.961C50.888,92.874 50.892,92.787 50.9,92.7ZM124.8,87.7C123.749,87.678 122.76,88.211 122.2,89.1L122.2,87.9L120.3,87.9L120.3,97.5L122.2,97.5L122.2,92.1C122.2,90.5 123,89.5 124.3,89.5C124.739,89.518 125.176,89.585 125.6,89.7L126.2,87.9C125.742,87.784 125.272,87.717 124.8,87.7L124.8,87.7ZM140.2,96.1C140.341,96.085 140.483,96.12 140.6,96.2C140.7,96.2 140.8,96.3 140.9,96.4C141,96.5 141.1,96.6 141.1,96.7C141.1,96.8 141.2,96.9 141.2,97.1C141.215,97.241 141.18,97.383 141.1,97.5C141,97.6 141,97.7 140.9,97.8C140.8,97.9 140.7,98 140.6,98C140.5,98 140.4,98.1 140.2,98.1C140.059,98.115 139.917,98.08 139.8,98C139.7,97.9 139.6,97.9 139.5,97.8C139.4,97.7 139.3,97.6 139.3,97.5C139.3,97.4 139.2,97.3 139.2,97.1C139.185,96.959 139.22,96.817 139.3,96.7C139.4,96.6 139.4,96.5 139.5,96.4C139.6,96.3 139.7,96.2 139.8,96.2C139.9,96.2 140.1,96.1 140.2,96.1L140.2,96.1ZM140.2,97.8C140.31,97.813 140.42,97.776 140.5,97.7C140.606,97.691 140.691,97.606 140.7,97.5L140.9,97.3C140.9,97.2 141,97.1 141,97C141.013,96.89 140.976,96.78 140.9,96.7C140.891,96.594 140.806,96.509 140.7,96.5L140.5,96.3C140.4,96.3 140.3,96.2 140.2,96.2C140.09,96.187 139.98,96.224 139.9,96.3C139.794,96.309 139.709,96.394 139.7,96.5L139.5,96.7C139.5,96.8 139.4,96.9 139.4,97C139.387,97.11 139.424,97.22 139.5,97.3C139.509,97.406 139.594,97.491 139.7,97.5L139.9,97.7C139.98,97.776 140.09,97.813 140.2,97.8L140.2,97.8ZM140.3,96.7C140.41,96.687 140.52,96.724 140.6,96.8C140.7,96.9 140.7,96.9 140.7,97C140.7,97.1 140.7,97.1 140.6,97.2C140.546,97.254 140.476,97.289 140.4,97.3L140.7,97.6L140.4,97.6L140.1,97.3L140,97.3L140,97.6L139.8,97.6L139.8,96.7L140.3,96.7ZM140.1,96.8L140.1,97L140.4,97L140.4,96.8L140.1,96.8L140.1,96.8ZM117.4,92.7L117.4,87.9L115.5,87.9L115.5,89.1C114.758,88.156 113.599,87.633 112.4,87.7C109.657,87.7 107.4,89.957 107.4,92.7C107.4,95.443 109.657,97.7 112.4,97.7C113.599,97.767 114.758,97.244 115.5,96.3L115.5,97.5L117.4,97.5L117.4,92.7ZM109.7,92.7C109.805,91.133 111.123,89.9 112.693,89.9C114.339,89.9 115.693,91.254 115.693,92.9C115.693,94.543 114.343,95.896 112.7,95.9C110.8,96 109.7,94.5 109.7,92.7ZM136.8,92.7L136.8,84.1L134.9,84.1L134.9,89.1C134.158,88.156 132.999,87.633 131.8,87.7C129.057,87.7 126.8,89.957 126.8,92.7C126.8,95.443 129.057,97.7 131.8,97.7C132.999,97.767 134.158,97.244 134.9,96.3L134.9,97.5L136.8,97.5L136.8,92.7ZM129,92.7C129.105,91.133 130.423,89.9 131.993,89.9C133.639,89.9 134.993,91.254 134.993,92.9C134.993,94.543 133.643,95.896 132,95.9C131.976,95.901 131.952,95.901 131.928,95.901C130.316,95.901 128.988,94.574 128.988,92.961C128.988,92.874 128.992,92.787 129,92.7L129,92.7Z" style="fill-rule:nonzero;"/>
        <g id="__Group_">
            <rect x="66.8" y="15.1" width="34.7" height="56.6" style="fill:rgb(255,95,0);"/>
            <path id="__Path_" d="M70.4,43.4C70.403,32.376 75.455,21.94 84.1,15.1C77.757,10.113 69.918,7.4 61.849,7.4C42.1,7.4 25.849,23.651 25.849,43.4C25.849,63.149 42.1,79.4 61.849,79.4C61.866,79.4 61.883,79.4 61.9,79.4C69.954,79.406 77.779,76.692 84.1,71.7C75.455,64.86 70.403,54.424 70.4,43.4L70.4,43.4Z" style="fill:rgb(235,0,27);fill-rule:nonzero;"/>
            <path d="M138.9,65.7L138.9,64.5L139.4,64.5L139.4,64.3L138.2,64.3L138.2,64.5L138.7,64.5L138.7,65.7L138.9,65.7ZM141.3,65.7L141.3,64.3L140.9,64.3L140.5,65.3L140.1,64.3L139.7,64.3L139.7,65.7L140,65.7L140,64.6L140.4,65.5L140.7,65.5L141.1,64.6L141.1,65.7L141.3,65.7Z" style="fill:rgb(247,158,27);fill-rule:nonzero;"/>
            <path d="M142.4,43.4C142.378,63.134 126.134,79.36 106.4,79.36C98.353,79.36 90.535,76.662 84.2,71.7C92.847,64.862 97.9,54.424 97.9,43.4C97.9,32.376 92.847,21.938 84.2,15.1C90.535,10.138 98.353,7.44 106.4,7.44C126.134,7.44 142.378,23.666 142.4,43.4L142.4,43.4Z" style="fill:rgb(247,158,27);fill-rule:nonzero;"/>
        </g>
    </g>
</svg>
