
<svg xmlns="http://www.w3.org/2000/svg" version="1.1" xmlns:xlink="http://www.w3.org/1999/xlink" preserveAspectRatio="none" x="0px" y="0px" width="500px" height="180px" viewBox="0 0 500 180">
<defs>
<g id="Layer4_0_MEMBER_0_FILL">
<path fill="#2FC24B" stroke="none" d="
M 778.15 287.3
Q 770.85 280 760.5 280
L 320 280
Q 309.65 280 302.3 287.3 295 294.65 295 305
L 295 435
Q 295 445.35 302.3 452.65 309.65 460 320 460
L 760.5 460
Q 770.85 460 778.15 452.65 785.5 445.35 785.5 435
L 785.5 305
Q 785.5 294.65 778.15 287.3 Z"/>
</g>

<g id="Layer4_0_MEMBER_1_FILL">
<path fill="#2FC24B" stroke="none" d="
M 500 178.9
Q 490.95 176.75 489.95 151.85
L 480.95 173.35
Q 486.75 179.85 500 178.9 Z"/>
</g>

<g id="Layer4_1_FILL">
<path fill="#FFFFFF" stroke="none" d="
M 113.2 132.6
Q 115.2 132.6 116.45 133.5 117.75 134.45 117.95 136.5
L 120.4 136.5
Q 120.35 134.9 119.8 133.8 119.25 132.65 118.25 131.9 117.3 131.1 116.05 130.75 114.75 130.4 113.3 130.4 111.95 130.4 110.7 130.75 109.45 131.1 108.45 131.75 107.5 132.45 106.9 133.55 106.6 134.05 106.45 134.7 106.3 135.35 106.3 136.05 106.3 137.4 106.8 138.25 107.35 139.15 108.2 139.7 109.1 140.25 110.2 140.6
L 114.7 141.65
Q 115.85 141.9 116.7 142.3 117.6 142.7 118.1 143.3 118.65 143.95 118.65 144.95 118.65 146 118.2 146.65 117.75 147.35 117.05 147.75 116.35 148.1 115.5 148.3 114.6 148.45 113.75 148.45 112.65 148.45 111.65 148.15 110.6 147.9 109.85 147.35 109.1 146.8 108.6 145.9 108.15 145 108.15 143.8
L 105.7 143.8
Q 105.7 145.55 106.35 146.85 106.65 147.5 107.1 148 107.5 148.55 108.05 148.95 109.15 149.75 110.6 150.2 112.05 150.6 113.65 150.6 115 150.6 116.35 150.25 117.65 149.95 118.75 149.25 119.8 148.6 120.5 147.5 121.2 146.4 121.2 144.85 121.2 143.45 120.65 142.5 120.15 141.55 119.25 140.9 118.4 140.3 117.3 139.95
L 112.75 138.8
Q 111.65 138.55 110.8 138.2 109.9 137.85 109.4 137.3 108.85 136.75 108.85 135.85 108.85 134.9 109.2 134.3 109.6 133.65 110.2 133.3 110.8 132.9 111.6 132.75 112.35 132.6 113.2 132.6
M 86.1 136.2
L 83.95 136.2 83.95 150.15 86.2 150.15 86.2 142.25
Q 86.2 141.3 86.5 140.55 86.75 139.7 87.25 139.15 87.75 138.55 88.55 138.2 89.3 137.9 90.35 137.9 91 137.9 91.55 138.1 92.05 138.25 92.45 138.65 92.8 139 93 139.55 93.2 140.05 93.2 140.7
L 93.2 150.15 95.5 150.15 95.5 140.95
Q 95.5 139.85 95.25 138.9 95.05 137.95 94.45 137.3 93.9 136.6 92.95 136.25 92.05 135.85 90.7 135.85 89.1 135.85 88 136.5 86.85 137.15 86.15 138.4
L 86.1 138.4 86.1 136.2
M 149.3 136.2
L 147 136.2 147 150.15 149.3 150.15 149.3 136.2
M 147 133.7
L 149.3 133.7 149.3 130.9 147 130.9 147 133.7
M 156 132
L 153.7 132 153.7 136.2 151.35 136.2 151.35 138.2 153.7 138.2 153.7 147.1
Q 153.7 148.05 153.9 148.65 154.1 149.25 154.5 149.6 154.9 149.9 155.5 150.05
L 158.8 150.15 158.8 148.1 156.85 148.1 156.35 147.9
Q 156.15 147.8 156.1 147.55
L 156 146.9 156 138.2 158.8 138.2 158.8 136.2 156 136.2 156 132
M 140.7 136.1
Q 139.85 135.85 138.8 135.85 137.45 135.85 136.3 136.5 135.7 136.8 135.25 137.25 134.8 137.7 134.45 138.25 134.2 137.6 133.85 137.15 133.45 136.7 132.95 136.4 131.9 135.85 130.6 135.85 129.1 135.85 128 136.45 126.85 137.05 126.1 138.25
L 126.05 138.25 126.05 136.2 123.9 136.2 123.9 150.15 126.15 150.15 126.15 141.45
Q 126.15 141.05 126.4 140.45 126.6 139.85 127.05 139.25 127.45 138.7 128.2 138.3 128.9 137.9 129.9 137.9 130.7 137.9 131.2 138.15 131.7 138.35 131.95 138.75 132.3 139.2 132.4 139.75
L 132.5 141 132.5 150.15 134.8 150.15 134.8 141.45
Q 134.8 139.85 135.8 138.85 136.75 137.9 138.45 137.9 139.3 137.9 139.8 138.15 140.35 138.4 140.65 138.8 140.95 139.2 141.05 139.8
L 141.15 141 141.15 150.15 143.45 150.15 143.45 139.9
Q 143.45 138.85 143.1 138.05 142.8 137.3 142.2 136.8 141.55 136.3 140.7 136.1
M 75.7 135.85
L 74.4 136 73.15 136.45
Q 72.5 136.7 72.05 137.15 71.55 137.6 71.25 138.25
L 71.2 138.25 71.2 130.9 68.95 130.9 68.95 150.15 71.2 150.15 71.2 142.25
Q 71.2 141.3 71.5 140.55 71.75 139.7 72.25 139.15 72.75 138.55 73.55 138.2 74.3 137.9 75.35 137.9 76 137.9 76.55 138.1 77.05 138.25 77.45 138.65 77.8 139 78 139.55 78.2 140.05 78.2 140.7
L 78.2 150.15 80.5 150.15 80.5 140.95
Q 80.5 139.85 80.25 138.9 80.05 137.95 79.45 137.3 78.9 136.6 77.95 136.25 77.05 135.85 75.7 135.85
M 54.45 138
Q 53.6 138.95 53.15 140.3 52.75 141.65 52.75 143.2 52.75 144.7 53.15 146.05 53.6 147.35 54.45 148.35 55.3 149.35 56.6 149.9 57.2 150.2 57.95 150.3
L 59.5 150.45 61.05 150.3
Q 61.8 150.2 62.45 149.9 63.7 149.35 64.55 148.35 65.4 147.35 65.85 146.05 66.3 144.7 66.3 143.2 66.3 141.65 65.85 140.3 65.4 138.95 64.55 138 63.7 137 62.45 136.45 61.2 135.85 59.5 135.85 57.85 135.85 56.6 136.45 55.3 137 54.45 138
M 56.4 139.25
Q 57 138.6 57.8 138.25 58.6 137.9 59.5 137.9 60.4 137.9 61.2 138.25 62 138.6 62.55 139.25 63.15 139.95 63.5 140.95 63.85 141.9 63.85 143.2 63.85 144.45 63.5 145.45 63.15 146.4 62.55 147.1 62 147.75 61.2 148.1 60.4 148.45 59.5 148.45 58.6 148.45 57.8 148.1 57 147.75 56.4 147.1 55.8 146.4 55.5 145.45 55.15 144.45 55.15 143.2 55.15 141.9 55.5 140.95 55.8 139.95 56.4 139.25
M 49.65 130.9
L 47.1 130.9 47.1 144.95
Q 47.1 146.55 46.4 147.5 46.1 147.95 45.5 148.2 44.9 148.45 44 148.45 43.05 148.45 42.45 148.15 41.85 147.9 41.5 147.35 41.2 146.85 41.05 146.15
L 40.9 144.6 40.9 143.8 38.35 143.8 38.35 145
Q 38.35 147.75 39.8 149.15 41.25 150.6 43.95 150.6 45.6 150.6 46.7 150.15 47.75 149.7 48.45 148.95 49.1 148.2 49.4 147.25 49.65 146.3 49.65 145.35
L 49.65 130.9
M 80.15 102.75
L 78 102.75 78 116.7 80.25 116.7 80.25 108.8
Q 80.25 107.85 80.55 107.1 80.8 106.25 81.3 105.7 81.8 105.1 82.6 104.75 83.35 104.45 84.4 104.45 85.05 104.45 85.6 104.65 86.1 104.8 86.5 105.2 86.85 105.55 87.05 106.1 87.25 106.6 87.25 107.25
L 87.25 116.7 89.55 116.7 89.55 107.5
Q 89.55 106.4 89.3 105.45 89.1 104.5 88.5 103.85 87.95 103.15 87 102.8 86.1 102.4 84.75 102.4 83.15 102.4 82.05 103.05 80.9 103.7 80.2 104.95
L 80.15 104.95 80.15 102.75
M 72.65 98.55
L 70.35 98.55 70.35 102.75 68 102.75 68 104.75 70.35 104.75 70.35 113.65
Q 70.35 114.6 70.55 115.2 70.75 115.8 71.15 116.15 71.55 116.45 72.15 116.6
L 75.45 116.7 75.45 114.65 73.5 114.65 73 114.45
Q 72.8 114.35 72.75 114.1
L 72.65 113.45 72.65 104.75 75.45 104.75 75.45 102.75 72.65 102.75 72.65 98.55
M 60.25 97.55
Q 58.75 97.55 57.7 98 56.65 98.45 55.95 99.15 55.25 99.9 54.85 100.85 54.4 101.85 54.2 102.9 54 104 53.95 105.1
L 53.95 109.5
Q 54 110.6 54.2 111.7 54.4 112.8 54.85 113.75 55.25 114.7 55.95 115.45 56.65 116.15 57.7 116.6 58.75 117 60.25 117 61.75 117 62.8 116.6 63.9 116.15 64.6 115.45 65.25 114.7 65.7 113.75 66.1 112.8 66.3 111.7 66.5 110.6 66.6 109.5
L 66.6 105.1
Q 66.5 104 66.3 102.9 66.1 101.8 65.7 100.85 65.25 99.9 64.6 99.15 63.9 98.45 62.8 98 61.75 97.55 60.25 97.55
M 63 100.95
Q 63.45 101.55 63.7 102.35
L 64.2 105.7 64.15 109.7
Q 64.05 111.05 63.7 112.2 63.35 113.4 62.5 114.2 61.7 115 60.25 115 58.8 115 58 114.2 57.2 113.4 56.8 112.2 56.45 111.05 56.4 109.7
L 56.3 105.7 56.8 102.35
Q 57.05 101.55 57.5 100.95 57.95 100.35 58.6 99.95 59.3 99.6 60.25 99.6 61.25 99.6 61.9 99.95 62.6 100.35 63 100.95
M 49.35 98.95
Q 48.5 98.3 47.45 97.95 46.35 97.55 45.1 97.55 43.6 97.55 42.4 98.05 41.2 98.6 40.4 99.5 39.6 100.4 39.25 101.65 38.85 102.85 38.95 104.35
L 41.25 104.35
Q 41.2 103.45 41.4 102.6 41.6 101.75 42.05 101.1 42.5 100.4 43.25 100 43.95 99.6 44.95 99.6 45.7 99.6 46.4 99.85 47.05 100.05 47.55 100.5 48.05 101 48.35 101.6 48.65 102.25 48.65 103.05 48.65 104.05 48.35 104.8 48.05 105.55 47.45 106.2 46.8 106.85 45.9 107.5
L 41.85 110.15
Q 40.95 110.8 40.2 111.7 39.5 112.6 39 113.8 38.55 115 38.4 116.7
L 50.9 116.7 50.9 114.65 41.05 114.65
Q 41.25 113.8 41.75 113.1 42.3 112.4 43 111.8
L 48.2 108.45
Q 49 107.8 49.65 107.05 50.3 106.25 50.7 105.3 51.1 104.35 51.1 103.05 51.1 101.7 50.6 100.7 50.15 99.65 49.35 98.95
M 74.35 64
L 72.05 64 72.05 83.25 74.35 83.25 74.35 64
M 63.15 68.95
Q 62 68.95 60.95 69.2 59.9 69.45 59.1 70 58.3 70.55 57.8 71.45 57.3 72.35 57.25 73.65
L 59.55 73.65
Q 59.65 72.1 60.6 71.55 61.6 71 63.05 71
L 64.15 71.05
Q 64.7 71.15 65.15 71.4 65.55 71.65 65.85 72.1 66.15 72.55 66.15 73.3 66.15 73.95 65.75 74.3 65.4 74.65 64.75 74.8
L 59.7 75.75
Q 58.85 76 58.2 76.5 57.55 76.95 57.1 77.7 56.75 78.5 56.75 79.65 56.75 80.7 57.1 81.45 57.45 82.2 58.05 82.65 58.7 83.1 59.55 83.35 60.4 83.55 61.35 83.55 62.8 83.55 64.05 83.05 64.7 82.8 65.25 82.4 65.8 82 66.25 81.4 66.25 82.55 66.8 83.05 67.3 83.55 68.2 83.55 69.25 83.55 69.85 83.2
L 69.85 81.4 69.15 81.5
Q 68.6 81.5 68.5 81.15
L 68.4 79.95 68.4 72.8
Q 68.4 71.6 67.95 70.85 67.5 70.05 66.75 69.65 66 69.25 65.05 69.1
L 63.15 68.95
M 59.55 78.1
Q 59.95 77.6 60.55 77.35 61.2 77.1 61.95 76.95
L 65 76.5
Q 65.7 76.35 66.1 76.05
L 66.1 78.35
Q 66.1 78.85 65.9 79.4 65.65 79.95 65.1 80.45 64.6 80.9 63.8 81.2 63 81.5 61.85 81.5
L 60.85 81.4
Q 60.35 81.3 60 81.05 59.6 80.8 59.4 80.45 59.15 80.05 59.15 79.5 59.15 78.6 59.55 78.1
M 39.85 64
L 39.85 83.25 42.4 83.25 42.4 76.5 45.65 73.5 52.6 83.25 55.85 83.25 47.4 71.75 55.5 64 52.2 64 42.4 73.6 42.4 64 39.85 64
M 52.6 47.65
L 42.4 47.65 42.4 30.55 39.85 30.55 39.85 49.8 52.6 49.8 52.6 47.65
M 60.5 35.5
Q 58.85 35.5 57.6 36.1 56.3 36.65 55.45 37.65 54.6 38.6 54.15 39.95 53.75 41.3 53.75 42.85 53.75 44.35 54.15 45.7 54.6 47 55.45 48 56.3 49 57.6 49.55 58.2 49.85 58.95 49.95
L 60.5 50.1 62.05 49.95
Q 62.8 49.85 63.45 49.55 64.7 49 65.55 48 66.4 47 66.85 45.7 67.3 44.35 67.3 42.85 67.3 41.3 66.85 39.95 66.4 38.6 65.55 37.65 64.7 36.65 63.45 36.1 62.2 35.5 60.5 35.5
M 56.15 42.85
Q 56.15 41.55 56.5 40.6 56.8 39.6 57.4 38.9 58 38.25 58.8 37.9 59.6 37.55 60.5 37.55 61.4 37.55 62.2 37.9 63 38.25 63.55 38.9 64.15 39.6 64.5 40.6 64.85 41.55 64.85 42.85 64.85 44.1 64.5 45.1 64.15 46.05 63.55 46.75 63 47.4 62.2 47.75 61.4 48.1 60.5 48.1 59.6 48.1 58.8 47.75 58 47.4 57.4 46.75 56.8 46.05 56.5 45.1 56.15 44.1 56.15 42.85
M 148.7 97.45
L 133.25 97.45 133.25 99.6 139.7 99.6 139.7 116.7 142.25 116.7 142.25 99.6 148.7 99.6 148.7 97.45
M 128.4 97.45
L 125.55 97.45 118.05 116.7 120.65 116.7 122.8 110.9 130.95 110.9 133.05 116.7 135.9 116.7 128.4 97.45
M 126.95 99.75
L 130.15 108.75 123.65 108.75 126.9 99.75 126.95 99.75
M 141.55 64
L 139.25 64 139.25 83.25 141.55 83.25 141.55 64
M 135.6 69.3
L 133.3 69.3 133.3 83.25 135.6 83.25 135.6 69.3
M 133.3 64
L 133.3 66.8 135.6 66.8 135.6 64 133.3 64
M 126.35 72.25
L 126.3 72.25 126.3 69.3 124.15 69.3 124.15 83.25 126.45 83.25 126.45 77.05
Q 126.45 75.7 126.7 74.65 127 73.6 127.6 72.9 128.15 72.15 129.15 71.8 130.1 71.4 131.5 71.4
L 131.5 68.95
Q 129.65 68.9 128.4 69.7 127.8 70.15 127.3 70.75 126.8 71.4 126.35 72.25
M 147.5 69.3
L 145.2 69.3 145.2 83.25 147.5 83.25 147.5 69.3
M 145.2 66.8
L 147.5 66.8 147.5 64 145.2 64 145.2 66.8
M 109.05 96.95
Q 107.95 96.95 106.95 97.15 105.95 97.35 105.1 97.75 103.4 98.55 102.25 99.95 101.7 100.6 101.25 101.45 100.8 102.25 100.5 103.15 99.9 105 99.9 107.1 99.9 109.2 100.45 111.05 101 112.9 102.15 114.25 102.7 114.9 103.4 115.45 104.05 115.95 104.9 116.35 106.6 117.15 108.8 117.15 112.5 117.15 114.65 115.1 116.8 113.1 117.15 109.45
L 114.6 109.45
Q 114.5 110.6 114.1 111.65 113.7 112.7 113 113.4 112.3 114.15 111.3 114.6 110.3 115 109.05 115 107.3 115 106.05 114.35 104.85 113.7 104 112.6 103.25 111.5 102.85 110.05 102.5 108.6 102.5 106.95 102.5 105.4 102.85 104 103.25 102.6 104 101.5 104.85 100.4 106.05 99.75 107.3 99.15 109 99.15 110 99.15 110.9 99.4 111.8 99.65 112.5 100.15 114 101.15 114.4 103.25
L 116.95 103.25
Q 116.75 101.7 116.05 100.5 115.35 99.35 114.3 98.55 113.25 97.75 111.9 97.35 110.55 96.95 109.05 96.95
M 89.9 69.3
L 87.75 69.3 87.75 71.3
Q 87.1 70.15 86 69.55 84.9 68.95 83.55 68.95 81.75 68.95 80.55 69.65 79.3 70.35 78.5 71.4 77.75 72.5 77.45 73.8 77.15 75.1 77.15 76.35 77.15 77.75 77.5 79.05 77.9 80.35 78.7 81.3 79.45 82.25 80.65 82.8 81.8 83.4 83.35 83.4 84.7 83.4 85.9 82.8 87.1 82.15 87.7 80.9
L 87.75 80.9 87.75 81.8
Q 87.75 82.95 87.55 83.9 87.3 84.9 86.8 85.6 86.3 86.25 85.5 86.65 84.7 87.05 83.55 87.05
L 82.4 86.95
Q 81.75 86.8 81.25 86.55 80.7 86.25 80.35 85.85 80 85.4 79.95 84.8
L 77.65 84.8
Q 77.7 85.95 78.25 86.7 78.8 87.5 79.6 87.95 80.45 88.45 81.45 88.7 82.45 88.9 83.45 88.9 86.8 88.9 88.35 87.2 89.15 86.35 89.55 85.05 89.9 83.8 89.9 82.05
L 89.9 69.3
M 85.5 71.4
Q 86.3 71.85 86.75 72.55 87.2 73.3 87.45 74.2 87.65 75.1 87.65 76 87.65 76.95 87.4 77.95 87.2 78.9 86.7 79.7 86.2 80.45 85.4 80.9 84.65 81.4 83.5 81.4 82.35 81.4 81.6 80.9 80.85 80.45 80.4 79.7 79.95 78.9 79.75 77.95 79.55 77 79.55 76.05 79.55 75.05 79.8 74.15 80 73.25 80.5 72.55 81 71.85 81.8 71.4 82.55 71 83.7 71 84.75 71 85.5 71.4
M 109.75 71.1
Q 108.9 72.05 108.45 73.4 108.05 74.75 108.05 76.3 108.05 77.8 108.45 79.15 108.9 80.45 109.75 81.45 110.6 82.45 111.9 83 112.5 83.3 113.25 83.4
L 114.8 83.55 116.35 83.4
Q 117.1 83.3 117.75 83 119 82.45 119.85 81.45 120.7 80.45 121.15 79.15 121.6 77.8 121.6 76.3 121.6 74.75 121.15 73.4 120.7 72.05 119.85 71.1 119 70.1 117.75 69.55 116.5 68.95 114.8 68.95 113.15 68.95 111.9 69.55 110.6 70.1 109.75 71.1
M 111.7 72.35
Q 112.3 71.7 113.1 71.35 113.9 71 114.8 71 115.7 71 116.5 71.35 117.3 71.7 117.85 72.35 118.45 73.05 118.8 74.05 119.15 75 119.15 76.3 119.15 77.55 118.8 78.55 118.45 79.5 117.85 80.2 117.3 80.85 116.5 81.2 115.7 81.55 114.8 81.55 113.9 81.55 113.1 81.2 112.3 80.85 111.7 80.2 111.1 79.5 110.8 78.55 110.45 77.55 110.45 76.3 110.45 75 110.8 74.05 111.1 73.05 111.7 72.35
M 105.7 73.4
Q 105.25 72.05 104.4 71.1 103.55 70.1 102.3 69.55 101.05 68.95 99.35 68.95 97.7 68.95 96.45 69.55 95.15 70.1 94.3 71.1 93.45 72.05 93 73.4 92.6 74.75 92.6 76.3 92.6 77.8 93 79.15 93.45 80.45 94.3 81.45 95.15 82.45 96.45 83 97.05 83.3 97.8 83.4
L 99.35 83.55 100.9 83.4
Q 101.65 83.3 102.3 83 103.55 82.45 104.4 81.45 105.25 80.45 105.7 79.15 106.15 77.8 106.15 76.3 106.15 74.75 105.7 73.4
M 102.4 72.35
Q 103 73.05 103.35 74.05 103.7 75 103.7 76.3 103.7 77.55 103.35 78.55 103 79.5 102.4 80.2 101.85 80.85 101.05 81.2 100.25 81.55 99.35 81.55 98.45 81.55 97.65 81.2 96.85 80.85 96.25 80.2 95.65 79.5 95.35 78.55 95 77.55 95 76.3 95 75 95.35 74.05 95.65 73.05 96.25 72.35 96.85 71.7 97.65 71.35 98.45 71 99.35 71 100.25 71 101.05 71.35 101.85 71.7 102.4 72.35
M 99.8 39.5
Q 99.8 40.85 100.45 41.6 101.15 42.35 102.15 42.75 103.15 43.2 104.35 43.4
L 106.55 43.95
Q 107.55 44.2 108.25 44.65 108.9 45.15 108.9 46 108.9 46.65 108.6 47.1 108.25 47.5 107.75 47.7
L 106.65 48 105.55 48.1 104.15 47.95
Q 103.5 47.85 103 47.5 102.45 47.2 102.15 46.7 101.8 46.15 101.8 45.4
L 99.5 45.4
Q 99.55 46.7 100 47.6 100.5 48.5 101.35 49.05 102.15 49.6 103.2 49.85 104.25 50.1 105.4 50.1 106.45 50.1 107.5 49.9 108.6 49.7 109.45 49.2 110.3 48.65 110.8 47.8 111.35 47 111.35 45.75 111.35 44.7 110.95 44.05 110.55 43.4 109.9 42.95 109.3 42.5 108.45 42.2
L 103.7 40.95
Q 103.05 40.7 102.65 40.3 102.2 39.9 102.2 39.3 102.2 38.8 102.5 38.45 102.75 38.1 103.2 37.9
L 104.15 37.6 105.2 37.55 106.3 37.65
Q 106.85 37.8 107.3 38.05 107.75 38.35 108.1 38.75 108.35 39.2 108.4 39.9
L 110.7 39.9
Q 110.65 38.6 110.15 37.8 109.7 36.9 108.95 36.4 108.2 35.9 107.2 35.7 106.2 35.5 105 35.5 104.1 35.5 103.15 35.75 102.2 35.95 101.45 36.45 100.75 36.9 100.25 37.65 99.8 38.45 99.8 39.5
M 82.3 47.95
L 81.6 48.05
Q 81.05 48.05 80.95 47.7
L 80.85 46.5 80.85 39.35
Q 80.85 38.15 80.4 37.4 79.95 36.6 79.2 36.2 78.45 35.8 77.5 35.65
L 75.6 35.5
Q 74.45 35.5 73.4 35.75 72.35 36 71.55 36.55 70.75 37.1 70.25 38 69.75 38.9 69.7 40.2
L 72 40.2
Q 72.1 38.65 73.05 38.1 74.05 37.55 75.5 37.55
L 76.6 37.6
Q 77.15 37.7 77.6 37.95 78 38.2 78.3 38.65 78.6 39.1 78.6 39.85 78.6 40.5 78.2 40.85 77.85 41.2 77.2 41.35
L 72.15 42.3
Q 71.3 42.55 70.65 43.05 70 43.5 69.55 44.25 69.2 45.05 69.2 46.2 69.2 47.25 69.55 48 69.9 48.75 70.5 49.2 71.15 49.65 72 49.9 72.85 50.1 73.8 50.1 75.25 50.1 76.5 49.6 77.15 49.35 77.7 48.95 78.25 48.55 78.7 47.95 78.7 49.1 79.25 49.6 79.75 50.1 80.65 50.1 81.7 50.1 82.3 49.75
L 82.3 47.95
M 77.45 43.05
Q 78.15 42.9 78.55 42.6
L 78.55 44.9
Q 78.55 45.4 78.35 45.95 78.1 46.5 77.55 47 77.05 47.45 76.25 47.75 75.45 48.05 74.3 48.05
L 73.3 47.95
Q 72.8 47.85 72.45 47.6 72.05 47.35 71.85 47 71.6 46.6 71.6 46.05 71.6 45.15 72 44.65 72.4 44.15 73 43.9 73.65 43.65 74.4 43.5
L 77.45 43.05
M 96.85 30.55
L 94.55 30.55 94.55 37.7 94.5 37.7
Q 94.1 37.1 93.55 36.65 93 36.25 92.4 36
L 91.15 35.65 90 35.5
Q 88.4 35.5 87.2 36.1 86 36.7 85.2 37.65 84.4 38.65 84 40 83.65 41.3 83.65 42.8 83.65 44.25 84 45.6 84.45 46.9 85.25 47.9 86.05 48.9 87.2 49.5 87.85 49.8 88.55 49.95
L 90.05 50.1
Q 91.5 50.1 92.7 49.6 93.95 49.05 94.5 47.9
L 94.55 47.9 94.55 49.8 96.85 49.8 96.85 30.55
M 88.25 38
Q 89.05 37.55 90.25 37.55 91.45 37.55 92.25 38 93.1 38.45 93.65 39.15 94.15 39.9 94.4 40.85 94.65 41.8 94.65 42.85 94.65 43.8 94.4 44.75 94.15 45.7 93.65 46.45 93.15 47.2 92.35 47.65 91.55 48.1 90.4 48.1 89.25 48.1 88.45 47.65 87.6 47.25 87.1 46.5 86.55 45.8 86.3 44.85 86.05 43.9 86.05 42.95 86.05 41.9 86.25 40.95 86.5 40 86.95 39.2 87.45 38.45 88.25 38
M 154.8 46.8
L 151.8 46.8 151.8 49.8 154.8 49.8 154.8 46.8
M 141.3 35.85
L 141.3 37.85 143.65 37.85 143.65 46.75
Q 143.65 47.7 143.85 48.3 144.05 48.9 144.45 49.25 144.85 49.55 145.45 49.7
L 148.75 49.8 148.75 47.75 146.8 47.75 146.3 47.55
Q 146.1 47.45 146.05 47.2
L 145.95 46.55 145.95 37.85 148.75 37.85 148.75 35.85 145.95 35.85 145.95 31.65 143.65 31.65 143.65 35.85 141.3 35.85
M 124.4 36.95
Q 123.85 36.25 122.9 35.9 122 35.5 120.65 35.5
L 119.35 35.65 118.1 36.1
Q 117.45 36.35 117 36.8 116.5 37.25 116.2 37.9
L 116.15 37.9 116.15 30.55 113.9 30.55 113.9 49.8 116.15 49.8 116.15 41.9
Q 116.15 40.95 116.45 40.2 116.7 39.35 117.2 38.8 117.7 38.2 118.5 37.85 119.25 37.55 120.3 37.55 120.95 37.55 121.5 37.75 122 37.9 122.4 38.3 122.75 38.65 122.95 39.2 123.15 39.7 123.15 40.35
L 123.15 49.8 125.45 49.8 125.45 40.6
Q 125.45 39.5 125.2 38.55 125 37.6 124.4 36.95
M 131.3 35.85
L 129 35.85 129 49.8 131.3 49.8 131.3 35.85
M 129 30.55
L 129 33.35 131.3 33.35 131.3 30.55 129 30.55
M 139.65 30.3
Q 138.7 30.3 137.95 30.55 137.25 30.75 136.75 31.2 136.25 31.6 136 32.25 135.8 32.9 135.8 33.75
L 135.8 35.85 133.45 35.85 133.45 37.85 135.8 37.85 135.8 49.8 138.05 49.8 138.05 37.85 140.75 37.85 140.75 35.85 138.05 35.85 138.05 33.9
Q 138.05 33 138.55 32.65 139 32.35 139.8 32.35
L 140.45 32.35 141.1 32.5 141.1 30.55 140.4 30.35 139.65 30.3
M 277.35 131.45
Q 276.15 131 274.8 131 273.45 131 272.25 131.45 271.1 131.95 270.3 132.75 269.45 133.6 268.95 134.75 268.5 135.85 268.5 137.25 268.5 138.65 268.9 139.85 269.3 141.05 270.05 141.85 270.85 142.7 272 143.2 273.1 143.65 274.55 143.65 275.95 143.65 277.15 142.95 277.75 142.55 278.2 142.1 278.65 141.6 279 141
L 279.05 141.05
Q 278.95 144.8 277.9 146.65 276.85 148.45 274.75 148.45 274.05 148.45 273.45 148.25 272.85 148.05 272.35 147.7 271.35 146.95 271.2 145.55
L 268.9 145.55
Q 269.05 146.8 269.5 147.7 269.95 148.6 270.75 149.25 272.3 150.45 274.75 150.45 278.2 150.45 279.8 147.8 281.35 145.15 281.35 140.15 281.35 137.45 280.85 135.65 280.3 133.9 279.45 132.85 278.55 131.85 277.35 131.45
M 277.65 134.35
Q 278.15 134.95 278.4 135.75 278.65 136.5 278.65 137.4 278.65 138.25 278.35 139 278.1 139.8 277.6 140.35 277.1 140.95 276.35 141.3 275.6 141.6 274.75 141.6 273.9 141.6 273.2 141.3 272.5 140.95 272 140.4 271.5 139.8 271.25 139.1 270.95 138.35 270.95 137.55 270.95 136.7 271.15 135.85 271.35 135.05 271.8 134.4 272.25 133.8 272.95 133.4 273.7 133.05 274.7 133.05 275.65 133.05 276.4 133.4 277.15 133.75 277.65 134.35
M 256.95 132.85
Q 256.05 131.85 254.85 131.45 253.65 131 252.3 131 250.95 131 249.75 131.45 248.6 131.95 247.8 132.75 246.95 133.6 246.45 134.75 246 135.85 246 137.25 246 138.65 246.4 139.85 246.8 141.05 247.55 141.85 248.35 142.7 249.5 143.2 250.6 143.65 252.05 143.65 253.45 143.65 254.65 142.95 255.25 142.55 255.7 142.1 256.15 141.6 256.5 141
L 256.55 141.05
Q 256.45 144.8 255.4 146.65 254.35 148.45 252.25 148.45 251.55 148.45 250.95 148.25 250.35 148.05 249.85 147.7 248.85 146.95 248.7 145.55
L 246.4 145.55
Q 246.55 146.8 247 147.7 247.45 148.6 248.25 149.25 249.8 150.45 252.25 150.45 255.7 150.45 257.3 147.8 258.85 145.15 258.85 140.15 258.85 137.45 258.35 135.65 257.8 133.9 256.95 132.85
M 255.15 134.35
Q 255.65 134.95 255.9 135.75 256.15 136.5 256.15 137.4 256.15 138.25 255.85 139 255.6 139.8 255.1 140.35 254.6 140.95 253.85 141.3 253.1 141.6 252.25 141.6 251.4 141.6 250.7 141.3 250 140.95 249.5 140.4 249 139.8 248.75 139.1 248.45 138.35 248.45 137.55 248.45 136.7 248.65 135.85 248.85 135.05 249.3 134.4 249.75 133.8 250.45 133.4 251.2 133.05 252.2 133.05 253.15 133.05 253.9 133.4 254.65 133.75 255.15 134.35
M 258.9 110.4
Q 258.95 109.15 258.65 107.75 258.4 106.35 257.65 105.15 256.9 103.95 255.7 103.2 255.05 102.8 254.3 102.6 253.5 102.4 252.6 102.4 251.15 102.4 249.95 102.95 248.75 103.5 247.85 104.45 247 105.45 246.5 106.75 246.05 108.1 246.05 109.7 246.1 111.25 246.5 112.65 246.9 113.95 247.75 114.95 248.6 115.9 249.8 116.45 251.05 117 252.7 117 253.9 117 254.9 116.7 255.85 116.4 256.65 115.8 258.2 114.6 258.7 112.25
L 256.4 112.25
Q 256.25 112.95 255.95 113.45 255.65 114 255.2 114.35 254.25 115 252.8 115 251.65 115 250.8 114.6 250 114.25 249.45 113.6 248.9 112.95 248.65 112.15 248.45 111.3 248.45 110.4
L 258.9 110.4
M 256.1 106.85
Q 256.4 107.6 256.45 108.4
L 248.45 108.4
Q 248.5 107.6 248.8 106.85 249.1 106.15 249.6 105.6 250.15 105.05 250.85 104.75 251.55 104.45 252.45 104.45 253.3 104.45 254.05 104.75 254.75 105.05 255.25 105.6 255.8 106.1 256.1 106.85
M 271.25 116.45
L 271.25 113.7 268.25 113.7 268.25 116.7 269.85 116.7 269.8 117.4 269.55 118.15 269.05 118.8
Q 268.75 119.15 268.25 119.3
L 268.25 120.65
Q 269.85 120.2 270.55 119.05 270.9 118.5 271.05 117.85 271.25 117.2 271.25 116.45
M 268.5 104.85
L 268.5 102.4
Q 266.65 102.35 265.4 103.15 264.8 103.6 264.3 104.2 263.8 104.85 263.35 105.7
L 263.3 105.7 263.3 102.75 261.15 102.75 261.15 116.7 263.45 116.7 263.45 110.5
Q 263.45 109.15 263.7 108.1 264 107.05 264.6 106.35 265.15 105.6 266.15 105.25 267.1 104.85 268.5 104.85
M 295.85 135.65
Q 295.3 133.9 294.45 132.85 293.55 131.85 292.35 131.45 291.15 131 289.8 131 288.45 131 287.25 131.45 286.1 131.95 285.3 132.75 284.45 133.6 283.95 134.75 283.5 135.85 283.5 137.25 283.5 138.65 283.9 139.85 284.3 141.05 285.05 141.85 285.85 142.7 287 143.2 288.1 143.65 289.55 143.65 290.95 143.65 292.15 142.95 292.75 142.55 293.2 142.1 293.65 141.6 294 141
L 294.05 141.05
Q 293.95 144.8 292.9 146.65 291.85 148.45 289.75 148.45 289.05 148.45 288.45 148.25 287.85 148.05 287.35 147.7 286.35 146.95 286.2 145.55
L 283.9 145.55
Q 284.05 146.8 284.5 147.7 284.95 148.6 285.75 149.25 287.3 150.45 289.75 150.45 293.2 150.45 294.8 147.8 296.35 145.15 296.35 140.15 296.35 137.45 295.85 135.65
M 286.15 135.85
Q 286.35 135.05 286.8 134.4 287.25 133.8 287.95 133.4 288.7 133.05 289.7 133.05 290.65 133.05 291.4 133.4 292.15 133.75 292.65 134.35 293.15 134.95 293.4 135.75 293.65 136.5 293.65 137.4 293.65 138.25 293.35 139 293.1 139.8 292.6 140.35 292.1 140.95 291.35 141.3 290.6 141.6 289.75 141.6 288.9 141.6 288.2 141.3 287.5 140.95 287 140.4 286.5 139.8 286.25 139.1 285.95 138.35 285.95 137.55 285.95 136.7 286.15 135.85
M 300.3 132.75
Q 299.45 133.6 298.95 134.75 298.5 135.85 298.5 137.25 298.5 138.65 298.9 139.85 299.3 141.05 300.05 141.85 300.85 142.7 302 143.2 303.1 143.65 304.55 143.65 305.95 143.65 307.15 142.95 307.75 142.55 308.2 142.1 308.65 141.6 309 141
L 309.05 141.05
Q 308.95 144.8 307.9 146.65 306.85 148.45 304.75 148.45 304.05 148.45 303.45 148.25 302.85 148.05 302.35 147.7 301.35 146.95 301.2 145.55
L 298.9 145.55
Q 299.05 146.8 299.5 147.7 299.95 148.6 300.75 149.25 302.3 150.45 304.75 150.45 308.2 150.45 309.8 147.8 311.35 145.15 311.35 140.15 311.35 137.45 310.85 135.65 310.3 133.9 309.45 132.85 308.55 131.85 307.35 131.45 306.15 131 304.8 131 303.45 131 302.25 131.45 301.1 131.95 300.3 132.75
M 301.15 135.85
Q 301.35 135.05 301.8 134.4 302.25 133.8 302.95 133.4 303.7 133.05 304.7 133.05 305.65 133.05 306.4 133.4 307.15 133.75 307.65 134.35 308.15 134.95 308.4 135.75 308.65 136.5 308.65 137.4 308.65 138.25 308.35 139 308.1 139.8 307.6 140.35 307.1 140.95 306.35 141.3 305.6 141.6 304.75 141.6 303.9 141.6 303.2 141.3 302.5 140.95 302 140.4 301.5 139.8 301.25 139.1 300.95 138.35 300.95 137.55 300.95 136.7 301.15 135.85
M 191.25 141.55
L 183.45 141.55 183.45 143.75 191.25 143.75 191.25 141.55
M 168.1 135.85
L 166.8 136 165.55 136.45
Q 164.9 136.7 164.45 137.15 163.95 137.6 163.65 138.25
L 163.6 138.25 163.6 130.9 161.35 130.9 161.35 150.15 163.6 150.15 163.6 142.25
Q 163.6 141.3 163.9 140.55 164.15 139.7 164.65 139.15 165.15 138.55 165.95 138.2 166.7 137.9 167.75 137.9 168.4 137.9 168.95 138.1 169.45 138.25 169.85 138.65 170.2 139 170.4 139.55 170.6 140.05 170.6 140.7
L 170.6 150.15 172.9 150.15 172.9 140.95
Q 172.9 139.85 172.65 138.9 172.45 137.95 171.85 137.3 171.3 136.6 170.35 136.25 169.45 135.85 168.1 135.85
M 237.3 131
Q 235.95 131 234.75 131.45 233.6 131.95 232.8 132.75 231.95 133.6 231.45 134.75 231 135.85 231 137.25 231 138.65 231.4 139.85 231.8 141.05 232.55 141.85 233.35 142.7 234.5 143.2 235.6 143.65 237.05 143.65 238.45 143.65 239.65 142.95 240.25 142.55 240.7 142.1 241.15 141.6 241.5 141
L 241.55 141.05
Q 241.45 144.8 240.4 146.65 239.35 148.45 237.25 148.45 236.55 148.45 235.95 148.25 235.35 148.05 234.85 147.7 233.85 146.95 233.7 145.55
L 231.4 145.55
Q 231.55 146.8 232 147.7 232.45 148.6 233.25 149.25 234.8 150.45 237.25 150.45 240.7 150.45 242.3 147.8 243.85 145.15 243.85 140.15 243.85 137.45 243.35 135.65 242.8 133.9 241.95 132.85 241.05 131.85 239.85 131.45 238.65 131 237.3 131
M 235.45 133.4
Q 236.2 133.05 237.2 133.05 238.15 133.05 238.9 133.4 239.65 133.75 240.15 134.35 240.65 134.95 240.9 135.75 241.15 136.5 241.15 137.4 241.15 138.25 240.85 139 240.6 139.8 240.1 140.35 239.6 140.95 238.85 141.3 238.1 141.6 237.25 141.6 236.4 141.6 235.7 141.3 235 140.95 234.5 140.4 234 139.8 233.75 139.1 233.45 138.35 233.45 137.55 233.45 136.7 233.65 135.85 233.85 135.05 234.3 134.4 234.75 133.8 235.45 133.4
M 215.85 143.45
L 215.85 145.65 224.25 145.65 224.25 150.15 226.4 150.15 226.4 145.65 229 145.65 229 143.65 226.4 143.65 226.4 131 224.6 131 215.85 143.45
M 224.2 134.3
L 224.25 134.3 224.25 143.65 217.85 143.65 224.2 134.3
M 205.05 131.45
Q 204 131.9 203.3 132.6 202.6 133.35 202.2 134.3 201.75 135.3 201.55 136.35 201.35 137.45 201.3 138.55
L 201.3 142.95
Q 201.35 144.05 201.55 145.15 201.75 146.25 202.2 147.2 202.6 148.15 203.3 148.9 204 149.6 205.05 150.05 206.1 150.45 207.6 150.45 209.1 150.45 210.15 150.05 211.25 149.6 211.95 148.9 212.6 148.15 213.05 147.2 213.45 146.25 213.65 145.15 213.85 144.05 213.95 142.95
L 213.95 138.55
Q 213.85 137.45 213.65 136.35 213.45 135.25 213.05 134.3 212.6 133.35 211.95 132.6 211.25 131.9 210.15 131.45 209.1 131 207.6 131 206.1 131 205.05 131.45
M 204.15 135.8
Q 204.4 135 204.85 134.4 205.3 133.8 205.95 133.4 206.65 133.05 207.6 133.05 208.6 133.05 209.25 133.4 209.95 133.8 210.35 134.4 210.8 135 211.05 135.8
L 211.55 139.15 211.5 143.15
Q 211.4 144.5 211.05 145.65 210.7 146.85 209.85 147.65 209.05 148.45 207.6 148.45 206.15 148.45 205.35 147.65 204.55 146.85 204.15 145.65 203.8 144.5 203.75 143.15
L 203.8 137.45 204.15 135.8
M 227.35 103
Q 226.1 102.4 224.4 102.4 222.75 102.4 221.5 103 220.2 103.55 219.35 104.55 218.5 105.5 218.05 106.85 217.65 108.2 217.65 109.75 217.65 111.25 218.05 112.6 218.5 113.9 219.35 114.9 220.2 115.9 221.5 116.45 222.1 116.75 222.85 116.85
L 224.4 117 225.95 116.85
Q 226.7 116.75 227.35 116.45 228.6 115.9 229.45 114.9 230.3 113.9 230.75 112.6 231.2 111.25 231.2 109.75 231.2 108.2 230.75 106.85 230.3 105.5 229.45 104.55 228.6 103.55 227.35 103
M 224.4 104.45
Q 225.3 104.45 226.1 104.8 226.9 105.15 227.45 105.8 228.05 106.5 228.4 107.5 228.75 108.45 228.75 109.75 228.75 111 228.4 112 228.05 112.95 227.45 113.65 226.9 114.3 226.1 114.65 225.3 115 224.4 115 223.5 115 222.7 114.65 221.9 114.3 221.3 113.65 220.7 112.95 220.4 112 220.05 111 220.05 109.75 220.05 108.45 220.4 107.5 220.7 106.5 221.3 105.8 221.9 105.15 222.7 104.8 223.5 104.45 224.4 104.45
M 233.25 104.75
L 241.1 104.75 232.7 114.95 232.7 116.7 244.45 116.7 244.45 114.65 235.55 114.65 244.1 104.3 244.1 102.75 233.25 102.75 233.25 104.75
M 210.3 98
Q 208.6 97.45 206.4 97.45
L 199.75 97.45 199.75 116.7 206.4 116.7
Q 208.8 116.7 210.55 116.05 212.3 115.35 213.4 114.05 214 113.45 214.4 112.65 214.85 111.85 215.1 110.9 215.65 109.05 215.65 106.6 215.65 104.3 215.05 102.55 214.45 100.85 213.25 99.7 212.05 98.55 210.3 98
M 213.05 106.95
Q 213.05 108.75 212.7 110 212.35 111.25 211.75 112.1 211.2 112.9 210.5 113.4 209.8 113.9 209.05 114.15 208.3 114.4 207.65 114.45
L 206.6 114.55 202.3 114.55 202.3 99.6 206.65 99.6
Q 208.4 99.6 209.65 100.1 210.85 100.6 211.6 101.55 212.4 102.5 212.75 103.85 213.05 105.25 213.05 106.95
M 225.45 71.3
L 228.25 71.3 228.25 69.3 225.45 69.3 225.45 65.1 223.15 65.1 223.15 69.3 220.8 69.3 220.8 71.3 223.15 71.3 223.15 80.2
Q 223.15 81.15 223.35 81.75 223.55 82.35 223.95 82.7 224.35 83 224.95 83.15
L 228.25 83.25 228.25 81.2 226.3 81.2 225.8 81
Q 225.6 80.9 225.55 80.65
L 225.45 80 225.45 71.3
M 198.05 83.25
L 200.2 77.45 208.35 77.45 210.45 83.25 213.3 83.25 205.8 64 202.95 64 195.45 83.25 198.05 83.25
M 204.3 66.3
L 204.35 66.3 207.55 75.3 201.05 75.3 204.3 66.3
M 187 98.8
Q 185.6 97.55 183.2 97.55 181.15 97.55 179.8 98.45 179.15 98.85 178.6 99.45 178.05 100 177.65 100.7 176.85 102.15 176.5 104 176.2 105.85 176.2 107.8 176.2 109.35 176.4 110.95 176.65 112.55 177.35 113.9 178.05 115.25 179.35 116.15 180.65 117 182.75 117 184.6 117 185.8 116.4 187.05 115.8 187.75 114.85 188.5 113.9 188.85 112.8 189.15 111.65 189.15 110.6 189.15 109.3 188.75 108.15 188.35 107 187.6 106.15 186.85 105.35 185.8 104.85 184.7 104.4 183.3 104.4
L 181.85 104.55
Q 181.15 104.7 180.55 105 179.35 105.55 178.55 106.9
L 178.45 106.85 178.7 104.45
Q 178.9 103.2 179.4 102.1 179.85 101 180.75 100.3 181.2 99.95 181.8 99.75 182.4 99.6 183.1 99.6 184.5 99.6 185.35 100.35 185.75 100.75 186 101.3 186.25 101.8 186.35 102.45
L 188.6 102.45
Q 188.5 101.25 188.1 100.35 187.7 99.45 187 98.8
M 186.5 109.05
Q 186.75 109.85 186.75 110.75 186.75 111.6 186.45 112.35 186.2 113.15 185.75 113.75 185.25 114.35 184.55 114.65 183.8 115 182.9 115 181.95 115 181.2 114.65 180.45 114.35 179.95 113.75 179.45 113.2 179.15 112.4 178.9 111.6 178.9 110.75 178.9 109.85 179.15 109.05 179.4 108.25 179.9 107.65 180.45 107.1 181.15 106.75 181.9 106.4 182.9 106.4 183.85 106.4 184.6 106.75 185.3 107.1 185.8 107.7 186.3 108.3 186.5 109.05
M 163.15 76.95
Q 163.2 75.7 162.9 74.3 162.65 72.9 161.9 71.7 161.15 70.5 159.95 69.75 159.3 69.35 158.55 69.15 157.75 68.95 156.85 68.95 155.4 68.95 154.2 69.5 153 70.05 152.1 71 151.25 72 150.75 73.3 150.3 74.65 150.3 76.25 150.35 77.8 150.75 79.2 151.15 80.5 152 81.5 152.85 82.45 154.05 83 155.3 83.55 156.95 83.55 158.15 83.55 159.15 83.25 160.1 82.95 160.9 82.35 162.45 81.15 162.95 78.8
L 160.65 78.8
Q 160.5 79.5 160.2 80 159.9 80.55 159.45 80.9 158.5 81.55 157.05 81.55 155.9 81.55 155.05 81.15 154.25 80.8 153.7 80.15 153.15 79.5 152.9 78.7 152.7 77.85 152.7 76.95
L 163.15 76.95
M 155.1 71.3
Q 155.8 71 156.7 71 157.55 71 158.3 71.3 159 71.6 159.5 72.15 160.05 72.65 160.35 73.4 160.65 74.15 160.7 74.95
L 152.7 74.95
Q 152.75 74.15 153.05 73.4 153.35 72.7 153.85 72.15 154.4 71.6 155.1 71.3
M 168.8 98
Q 167.1 97.45 164.9 97.45
L 158.25 97.45 158.25 116.7 164.9 116.7
Q 167.3 116.7 169.05 116.05 170.8 115.35 171.9 114.05 172.5 113.45 172.9 112.65 173.35 111.85 173.6 110.9 174.15 109.05 174.15 106.6 174.15 104.3 173.55 102.55 172.95 100.85 171.75 99.7 170.55 98.55 168.8 98
M 171.55 106.95
Q 171.55 108.75 171.2 110 170.85 111.25 170.25 112.1 169.7 112.9 169 113.4 168.3 113.9 167.55 114.15 166.8 114.4 166.15 114.45
L 165.1 114.55 160.8 114.55 160.8 99.6 165.15 99.6
Q 166.9 99.6 168.15 100.1 169.35 100.6 170.1 101.55 170.9 102.5 171.25 103.85 171.55 105.25 171.55 106.95
M 183.65 67.05
L 183.7 67.05 188.1 83.25 190.75 83.25 195.95 64 193.35 64 189.45 80 189.4 80 185.15 64 182.35 64 178.05 80 177.95 80 174.2 64 171.6 64 176.5 83.25 179.2 83.25 183.65 67.05
M 166.85 35.8
Q 165.8 35.5 164.6 35.5 162.95 35.5 161.7 36.1 160.5 36.7 159.65 37.7 158.85 38.7 158.4 40.05 158.05 41.45 158.05 43 158.05 44.55 158.45 45.85 158.85 47.2 159.7 48.15 160.5 49.05 161.75 49.6 162.95 50.1 164.55 50.1 165.9 50.1 166.95 49.75 168 49.4 168.8 48.7 169.55 48 170.05 47 170.5 46 170.7 44.7
L 168.35 44.7
Q 168.15 46.3 167.2 47.2 166.25 48.1 164.55 48.1 163.45 48.1 162.65 47.65 161.9 47.25 161.4 46.5 160.9 45.8 160.7 44.9 160.45 43.95 160.45 43 160.45 41.95 160.65 40.95 160.9 40 161.4 39.2 161.9 38.45 162.7 38 163.55 37.55 164.8 37.55 165.55 37.55 166.1 37.7 166.7 37.9 167.1 38.3 167.55 38.65 167.85 39.15 168.1 39.65 168.25 40.3
L 170.65 40.3
Q 170.5 39.1 170 38.15 169.45 37.3 168.7 36.7 167.85 36.1 166.85 35.8
M 179.25 35.5
Q 177.6 35.5 176.35 36.1 175.05 36.65 174.2 37.65 173.35 38.6 172.9 39.95 172.5 41.3 172.5 42.85 172.5 44.35 172.9 45.7 173.35 47 174.2 48 175.05 49 176.35 49.55 176.95 49.85 177.7 49.95
L 179.25 50.1 180.8 49.95
Q 181.55 49.85 182.2 49.55 183.45 49 184.3 48 185.15 47 185.6 45.7 186.05 44.35 186.05 42.85 186.05 41.3 185.6 39.95 185.15 38.6 184.3 37.65 183.45 36.65 182.2 36.1 180.95 35.5 179.25 35.5
M 177.55 37.9
Q 178.35 37.55 179.25 37.55 180.15 37.55 180.95 37.9 181.75 38.25 182.3 38.9 182.9 39.6 183.25 40.6 183.6 41.55 183.6 42.85 183.6 44.1 183.25 45.1 182.9 46.05 182.3 46.75 181.75 47.4 180.95 47.75 180.15 48.1 179.25 48.1 178.35 48.1 177.55 47.75 176.75 47.4 176.15 46.75 175.55 46.05 175.25 45.1 174.9 44.1 174.9 42.85 174.9 41.55 175.25 40.6 175.55 39.6 176.15 38.9 176.75 38.25 177.55 37.9
M 215.2 46.8
L 212.2 46.8 212.2 49.8 215.2 49.8 215.2 46.8
M 207 36.45
Q 206.35 35.95 205.5 35.75 204.65 35.5 203.6 35.5 202.25 35.5 201.1 36.15 200.5 36.45 200.05 36.9 199.6 37.35 199.25 37.9 199 37.25 198.65 36.8 198.25 36.35 197.75 36.05 196.7 35.5 195.4 35.5 193.9 35.5 192.8 36.1 191.65 36.7 190.9 37.9
L 190.85 37.9 190.85 35.85 188.7 35.85 188.7 49.8 190.95 49.8 190.95 41.1
Q 190.95 40.7 191.2 40.1 191.4 39.5 191.85 38.9 192.25 38.35 193 37.95 193.7 37.55 194.7 37.55 195.5 37.55 196 37.8 196.5 38 196.75 38.4 197.1 38.85 197.2 39.4
L 197.3 40.65 197.3 49.8 199.6 49.8 199.6 41.1
Q 199.6 39.5 200.6 38.5 201.55 37.55 203.25 37.55 204.1 37.55 204.6 37.8 205.15 38.05 205.45 38.45 205.75 38.85 205.85 39.45
L 205.95 40.65 205.95 49.8 208.25 49.8 208.25 39.55
Q 208.25 38.5 207.9 37.7 207.6 36.95 207 36.45
M 222.65 35.75
Q 221.6 36 220.8 36.55 220 37.1 219.5 38 219 38.9 218.95 40.2
L 221.25 40.2
Q 221.35 38.65 222.3 38.1 223.3 37.55 224.75 37.55
L 225.85 37.6
Q 226.4 37.7 226.85 37.95 227.25 38.2 227.55 38.65 227.85 39.1 227.85 39.85 227.85 40.5 227.45 40.85 227.1 41.2 226.45 41.35
L 221.4 42.3
Q 220.55 42.55 219.9 43.05 219.25 43.5 218.8 44.25 218.45 45.05 218.45 46.2 218.45 47.25 218.8 48 219.15 48.75 219.75 49.2 220.4 49.65 221.25 49.9 222.1 50.1 223.05 50.1 224.5 50.1 225.75 49.6 226.4 49.35 226.95 48.95 227.5 48.55 227.95 47.95 227.95 49.1 228.5 49.6 229 50.1 229.9 50.1 230.95 50.1 231.55 49.75
L 231.55 47.95 230.85 48.05
Q 230.3 48.05 230.2 47.7
L 230.1 46.5 230.1 39.35
Q 230.1 38.15 229.65 37.4 229.2 36.6 228.45 36.2 227.7 35.8 226.75 35.65
L 224.85 35.5
Q 223.7 35.5 222.65 35.75
M 222.55 47.95
Q 222.05 47.85 221.7 47.6 221.3 47.35 221.1 47 220.85 46.6 220.85 46.05 220.85 45.15 221.25 44.65 221.65 44.15 222.25 43.9 222.9 43.65 223.65 43.5
L 226.7 43.05
Q 227.4 42.9 227.8 42.6
L 227.8 44.9
Q 227.8 45.4 227.6 45.95 227.35 46.5 226.8 47 226.3 47.45 225.5 47.75 224.7 48.05 223.55 48.05
L 222.55 47.95
M 308 69.3
L 304.95 69.3 298.55 75.4 298.55 64 296.25 64 296.25 83.25 298.55 83.25 298.55 77.95 300.7 75.95 305.5 83.25 308.4 83.25 302.45 74.35 308 69.3
M 311.2 71
Q 310.35 72 309.85 73.3 309.4 74.65 309.4 76.25 309.45 77.8 309.85 79.2 310.25 80.5 311.1 81.5 311.95 82.45 313.15 83 314.4 83.55 316.05 83.55 317.25 83.55 318.25 83.25 319.2 82.95 320 82.35 321.55 81.15 322.05 78.8
L 319.75 78.8
Q 319.6 79.5 319.3 80 319 80.55 318.55 80.9 317.6 81.55 316.15 81.55 315 81.55 314.15 81.15 313.35 80.8 312.8 80.15 312.25 79.5 312 78.7 311.8 77.85 311.8 76.95
L 322.25 76.95
Q 322.3 75.7 322 74.3 321.75 72.9 321 71.7 320.25 70.5 319.05 69.75 318.4 69.35 317.65 69.15 316.85 68.95 315.95 68.95 314.5 68.95 313.3 69.5 312.1 70.05 311.2 71
M 312.15 73.4
Q 312.45 72.7 312.95 72.15 313.5 71.6 314.2 71.3 314.9 71 315.8 71 316.65 71 317.4 71.3 318.1 71.6 318.6 72.15 319.15 72.65 319.45 73.4 319.75 74.15 319.8 74.95
L 311.8 74.95
Q 311.85 74.15 312.15 73.4
M 243.15 79.15
Q 243.6 77.8 243.6 76.3 243.6 74.75 243.15 73.4 242.7 72.05 241.85 71.1 241 70.1 239.75 69.55 238.5 68.95 236.8 68.95 235.15 68.95 233.9 69.55 232.6 70.1 231.75 71.1 230.9 72.05 230.45 73.4 230.05 74.75 230.05 76.3 230.05 77.8 230.45 79.15 230.9 80.45 231.75 81.45 232.6 82.45 233.9 83 234.5 83.3 235.25 83.4
L 236.8 83.55 238.35 83.4
Q 239.1 83.3 239.75 83 241 82.45 241.85 81.45 242.7 80.45 243.15 79.15
M 233.7 72.35
Q 234.3 71.7 235.1 71.35 235.9 71 236.8 71 237.7 71 238.5 71.35 239.3 71.7 239.85 72.35 240.45 73.05 240.8 74.05 241.15 75 241.15 76.3 241.15 77.55 240.8 78.55 240.45 79.5 239.85 80.2 239.3 80.85 238.5 81.2 237.7 81.55 236.8 81.55 235.9 81.55 235.1 81.2 234.3 80.85 233.7 80.2 233.1 79.5 232.8 78.55 232.45 77.55 232.45 76.3 232.45 75 232.8 74.05 233.1 73.05 233.7 72.35
M 243.05 49.8
L 245.2 49.8 245.2 35.85 242.9 35.85 242.9 43.7
Q 242.9 44.65 242.65 45.45 242.4 46.25 241.85 46.85 241.35 47.45 240.55 47.75 239.8 48.1 238.75 48.1 237.45 48.1 236.65 47.35 236.3 46.95 236.1 46.45 235.9 45.95 235.9 45.3
L 235.9 35.85 233.65 35.85 233.65 45.05
Q 233.65 46.15 233.85 47.1 234.1 48 234.65 48.7 235.2 49.35 236.15 49.75 237.05 50.1 238.45 50.1 239.95 50.1 241.1 49.5 242.25 48.9 242.95 47.6
L 243.05 47.6 243.05 49.8
M 281.65 71.1
Q 280.8 72.05 280.35 73.4 279.95 74.75 279.95 76.3 279.95 77.8 280.35 79.15 280.8 80.45 281.65 81.45 282.5 82.45 283.8 83 284.4 83.3 285.15 83.4
L 286.7 83.55 288.25 83.4
Q 289 83.3 289.65 83 290.9 82.45 291.75 81.45 292.6 80.45 293.05 79.15 293.5 77.8 293.5 76.3 293.5 74.75 293.05 73.4 292.6 72.05 291.75 71.1 290.9 70.1 289.65 69.55 288.4 68.95 286.7 68.95 285.05 68.95 283.8 69.55 282.5 70.1 281.65 71.1
M 282.7 78.55
Q 282.35 77.55 282.35 76.3 282.35 75 282.7 74.05 283 73.05 283.6 72.35 284.2 71.7 285 71.35 285.8 71 286.7 71 287.6 71 288.4 71.35 289.2 71.7 289.75 72.35 290.35 73.05 290.7 74.05 291.05 75 291.05 76.3 291.05 77.55 290.7 78.55 290.35 79.5 289.75 80.2 289.2 80.85 288.4 81.2 287.6 81.55 286.7 81.55 285.8 81.55 285 81.2 284.2 80.85 283.6 80.2 283 79.5 282.7 78.55
M 274.25 72.25
L 274.25 69.3 272.1 69.3 272.1 83.25 274.4 83.25 274.4 77.05
Q 274.4 75.7 274.65 74.65 274.95 73.6 275.55 72.9 276.1 72.15 277.1 71.8 278.05 71.4 279.45 71.4
L 279.45 68.95
Q 277.6 68.9 276.35 69.7 275.75 70.15 275.25 70.75 274.75 71.4 274.3 72.25
L 274.25 72.25
M 267.8 66.25
Q 267.15 65.25 266.2 64.65 265.75 64.4 265.15 64.25
L 254.1 64 254.1 83.25 263.4 83.25
Q 264.85 83.25 265.95 82.8 267.05 82.3 267.8 81.55 268.5 80.75 268.9 79.75 269.3 78.75 269.3 77.7 269.3 75.95 268.35 74.7 267.85 74.05 267.15 73.65 266.5 73.25 265.6 73.05
L 265.6 73
Q 266.3 72.75 266.85 72.35 267.35 71.9 267.75 71.35 268.1 70.8 268.3 70.15 268.45 69.45 268.45 68.7 268.45 67.25 267.8 66.25
M 263.4 66.25
Q 264.15 66.3 264.7 66.65 265.25 66.95 265.6 67.55 265.9 68.15 265.9 69.2 265.9 69.95 265.65 70.55 265.4 71.1 264.95 71.5 264 72.25 261.8 72.25
L 256.65 72.25 256.65 66.15 263.4 66.25
M 263.1 81.1
L 256.65 81.1 256.65 74.4 262.55 74.4 264.1 74.6
Q 264.85 74.7 265.45 75.1 266 75.45 266.35 76.05 266.7 76.7 266.7 77.65 266.7 78.45 266.5 79.1 266.25 79.7 265.75 80.2 264.8 81.1 263.1 81.1
M 276.95 32.8
Q 275.75 31.65 274 31.1 272.3 30.55 270.1 30.55
L 263.45 30.55 263.45 49.8 270.1 49.8
Q 272.5 49.8 274.25 49.15 276 48.45 277.1 47.15 277.7 46.55 278.1 45.75 278.55 44.95 278.8 44 279.35 42.15 279.35 39.7 279.35 37.4 278.75 35.65 278.15 33.95 276.95 32.8
M 275.3 34.65
Q 276.1 35.6 276.45 36.95 276.75 38.35 276.75 40.05 276.75 41.85 276.4 43.1 276.05 44.35 275.45 45.2 274.9 46 274.2 46.5 273.5 47 272.75 47.25 272 47.5 271.35 47.55
L 270.3 47.65 266 47.65 266 32.7 270.35 32.7
Q 272.1 32.7 273.35 33.2 274.55 33.7 275.3 34.65
M 259.15 30.55
L 256.6 30.55 256.6 49.8 259.15 49.8 259.15 30.55
M 312.45 30.65
L 310.7 30.65
Q 310.5 31.75 310 32.45 309.5 33.15 308.75 33.55 308 33.95 307.1 34.1
L 305.2 34.25 305.2 36.1 310.15 36.1 310.15 49.8 312.45 49.8 312.45 30.65
M 294.35 36.5
L 295.1 31 293.25 31 292.45 36.5 289.45 36.5 289.45 38.35 292.25 38.35 291.65 42.4 288.75 42.4 288.75 44.25 291.4 44.25 290.6 49.8 292.45 49.8 293.25 44.25 296.6 44.25 295.8 49.8 297.65 49.8 298.45 44.25 301.2 44.25 301.2 42.4 298.75 42.4 299.3 38.35 301.95 38.35 301.95 36.5 299.55 36.5 300.3 31 298.45 31 297.65 36.5 294.35 36.5
M 297.45 38.35
L 296.85 42.4 293.5 42.4 294.1 38.35 297.45 38.35
M 363.35 135.65
Q 362.8 133.9 361.95 132.85 361.05 131.85 359.85 131.45 358.65 131 357.3 131 355.95 131 354.75 131.45 353.6 131.95 352.8 132.75 351.95 133.6 351.45 134.75 351 135.85 351 137.25 351 138.65 351.4 139.85 351.8 141.05 352.55 141.85 353.35 142.7 354.5 143.2 355.6 143.65 357.05 143.65 358.45 143.65 359.65 142.95 360.25 142.55 360.7 142.1 361.15 141.6 361.5 141
L 361.55 141.05
Q 361.45 144.8 360.4 146.65 359.35 148.45 357.25 148.45 356.55 148.45 355.95 148.25 355.35 148.05 354.85 147.7 353.85 146.95 353.7 145.55
L 351.4 145.55
Q 351.55 146.8 352 147.7 352.45 148.6 353.25 149.25 354.8 150.45 357.25 150.45 360.7 150.45 362.3 147.8 363.85 145.15 363.85 140.15 363.85 137.45 363.35 135.65
M 355.45 133.4
Q 356.2 133.05 357.2 133.05 358.15 133.05 358.9 133.4 359.65 133.75 360.15 134.35 360.65 134.95 360.9 135.75 361.15 136.5 361.15 137.4 361.15 138.25 360.85 139 360.6 139.8 360.1 140.35 359.6 140.95 358.85 141.3 358.1 141.6 357.25 141.6 356.4 141.6 355.7 141.3 355 140.95 354.5 140.4 354 139.8 353.75 139.1 353.45 138.35 353.45 137.55 353.45 136.7 353.65 135.85 353.85 135.05 354.3 134.4 354.75 133.8 355.45 133.4
M 327.3 131
Q 325.95 131 324.75 131.45 323.6 131.95 322.8 132.75 321.95 133.6 321.45 134.75 321 135.85 321 137.25 321 138.65 321.4 139.85 321.8 141.05 322.55 141.85 323.35 142.7 324.5 143.2 325.6 143.65 327.05 143.65 328.45 143.65 329.65 142.95 330.25 142.55 330.7 142.1 331.15 141.6 331.5 141
L 331.55 141.05
Q 331.45 144.8 330.4 146.65 329.35 148.45 327.25 148.45 326.55 148.45 325.95 148.25 325.35 148.05 324.85 147.7 323.85 146.95 323.7 145.55
L 321.4 145.55
Q 321.55 146.8 322 147.7 322.45 148.6 323.25 149.25 324.8 150.45 327.25 150.45 330.7 150.45 332.3 147.8 333.85 145.15 333.85 140.15 333.85 137.45 333.35 135.65 332.8 133.9 331.95 132.85 331.05 131.85 329.85 131.45 328.65 131 327.3 131
M 327.2 133.05
Q 328.15 133.05 328.9 133.4 329.65 133.75 330.15 134.35 330.65 134.95 330.9 135.75 331.15 136.5 331.15 137.4 331.15 138.25 330.85 139 330.6 139.8 330.1 140.35 329.6 140.95 328.85 141.3 328.1 141.6 327.25 141.6 326.4 141.6 325.7 141.3 325 140.95 324.5 140.4 324 139.8 323.75 139.1 323.45 138.35 323.45 137.55 323.45 136.7 323.65 135.85 323.85 135.05 324.3 134.4 324.75 133.8 325.45 133.4 326.2 133.05 327.2 133.05
M 342.3 131
Q 340.95 131 339.75 131.45 338.6 131.95 337.8 132.75 336.95 133.6 336.45 134.75 336 135.85 336 137.25 336 138.65 336.4 139.85 336.8 141.05 337.55 141.85 338.35 142.7 339.5 143.2 340.6 143.65 342.05 143.65 343.45 143.65 344.65 142.95 345.25 142.55 345.7 142.1 346.15 141.6 346.5 141
L 346.55 141.05
Q 346.45 144.8 345.4 146.65 344.35 148.45 342.25 148.45 341.55 148.45 340.95 148.25 340.35 148.05 339.85 147.7 338.85 146.95 338.7 145.55
L 336.4 145.55
Q 336.55 146.8 337 147.7 337.45 148.6 338.25 149.25 339.8 150.45 342.25 150.45 345.7 150.45 347.3 147.8 348.85 145.15 348.85 140.15 348.85 137.45 348.35 135.65 347.8 133.9 346.95 132.85 346.05 131.85 344.85 131.45 343.65 131 342.3 131
M 338.65 135.85
Q 338.85 135.05 339.3 134.4 339.75 133.8 340.45 133.4 341.2 133.05 342.2 133.05 343.15 133.05 343.9 133.4 344.65 133.75 345.15 134.35 345.65 134.95 345.9 135.75 346.15 136.5 346.15 137.4 346.15 138.25 345.85 139 345.6 139.8 345.1 140.35 344.6 140.95 343.85 141.3 343.1 141.6 342.25 141.6 341.4 141.6 340.7 141.3 340 140.95 339.5 140.4 339 139.8 338.75 139.1 338.45 138.35 338.45 137.55 338.45 136.7 338.65 135.85
M 370.35 147.15
L 367.35 147.15 367.35 150.15 370.35 150.15 370.35 147.15
M 368.95 69.3
L 366.65 69.3 366.65 83.25 368.95 83.25 368.95 69.3
M 366.65 64
L 366.65 66.8 368.95 66.8 368.95 64 366.65 64
M 374.9 64
L 372.6 64 372.6 83.25 374.9 83.25 374.9 64
M 380.85 64
L 378.55 64 378.55 83.25 380.85 83.25 380.85 64
M 328.65 69.6
Q 327.5 70.25 326.8 71.5
L 326.75 71.5 326.75 69.3 324.6 69.3 324.6 83.25 326.85 83.25 326.85 75.35
Q 326.85 74.4 327.15 73.65 327.4 72.8 327.9 72.25 328.4 71.65 329.2 71.3 329.95 71 331 71 331.65 71 332.2 71.2 332.7 71.35 333.1 71.75 333.45 72.1 333.65 72.65 333.85 73.15 333.85 73.8
L 333.85 83.25 336.15 83.25 336.15 74.05
Q 336.15 72.95 335.9 72 335.7 71.05 335.1 70.4 334.55 69.7 333.6 69.35 332.7 68.95 331.35 68.95 329.75 68.95 328.65 69.6
M 362.75 64
L 360.15 64 360.15 72.25 350 72.25 350 64 347.45 64 347.45 83.25 350 83.25 350 74.4 360.15 74.4 360.15 83.25 362.75 83.25 362.75 64
M 355.05 32.7
Q 355.8 32.7 356.5 32.95 357.15 33.15 357.65 33.6 358.15 34.1 358.45 34.7 358.75 35.35 358.75 36.15 358.75 37.15 358.45 37.9 358.15 38.65 357.55 39.3 356.9 39.95 356 40.6
L 351.95 43.25
Q 351.05 43.9 350.3 44.8 349.6 45.7 349.1 46.9 348.65 48.1 348.5 49.8
L 361 49.8 361 47.75 351.15 47.75
Q 351.35 46.9 351.85 46.2 352.4 45.5 353.1 44.9
L 358.3 41.55
Q 359.1 40.9 359.75 40.15 360.4 39.35 360.8 38.4 361.2 37.45 361.2 36.15 361.2 34.8 360.7 33.8 360.25 32.75 359.45 32.05 358.6 31.4 357.55 31.05 356.45 30.65 355.2 30.65 353.7 30.65 352.5 31.15 351.3 31.7 350.5 32.6 349.7 33.5 349.35 34.75 348.95 35.95 349.05 37.45
L 351.35 37.45
Q 351.3 36.55 351.5 35.7 351.7 34.85 352.15 34.2 352.6 33.5 353.35 33.1 354.05 32.7 355.05 32.7
M 330.55 33
L 330.55 31 321.1 31 319.3 40.9 321.3 41
Q 321.95 40.2 322.85 39.7 323.7 39.2 324.85 39.2 325.8 39.2 326.6 39.55 327.4 39.85 328 40.45 328.55 41 328.85 41.8 329.15 42.6 329.15 43.55 329.15 44.7 328.85 45.55 328.5 46.4 327.95 46.95 327.4 47.55 326.65 47.8 325.9 48.1 325.1 48.1 324.25 48.1 323.55 47.85 322.8 47.6 322.3 47.1 321.75 46.65 321.45 46 321.15 45.35 321.1 44.65
L 318.8 44.65
Q 318.85 45.95 319.3 46.95 319.8 48 320.65 48.7 321.45 49.35 322.55 49.75 323.65 50.1 324.9 50.1 326.6 50.1 327.85 49.6 329.1 49.05 329.9 48.15 330.75 47.25 331.2 46.1 331.6 44.95 331.6 43.75 331.6 42.1 331.1 40.85 330.6 39.65 329.8 38.8 328.95 38 327.8 37.6 326.7 37.2 325.4 37.2 324.45 37.2 323.45 37.55 322.45 37.85 321.85 38.55
L 321.8 38.5 322.8 33 330.55 33
M 337.1 35.2
Q 337.55 34.1 338.45 33.4 338.9 33.05 339.5 32.85 340.1 32.7 340.8 32.7 342.2 32.7 343.05 33.45 343.45 33.85 343.7 34.4 343.95 34.9 344.05 35.55
L 346.3 35.55
Q 346.2 34.35 345.8 33.45 345.4 32.55 344.7 31.9 343.3 30.65 340.9 30.65 338.85 30.65 337.5 31.55 336.85 31.95 336.3 32.55 335.75 33.1 335.35 33.8 334.55 35.25 334.2 37.1 333.9 38.95 333.9 40.9 333.9 42.45 334.1 44.05 334.35 45.65 335.05 47 335.75 48.35 337.05 49.25 338.35 50.1 340.45 50.1 342.3 50.1 343.5 49.5 344.75 48.9 345.45 47.95 346.2 47 346.55 45.9 346.85 44.75 346.85 43.7 346.85 42.4 346.45 41.25 346.05 40.1 345.3 39.25 344.55 38.45 343.5 37.95 342.4 37.5 341 37.5
L 339.55 37.65
Q 338.85 37.8 338.25 38.1 337.05 38.65 336.25 40
L 336.15 39.95 336.4 37.55
Q 336.6 36.3 337.1 35.2
M 340.6 39.5
Q 341.55 39.5 342.3 39.85 343 40.2 343.5 40.8 344 41.4 344.2 42.15 344.45 42.95 344.45 43.85 344.45 44.7 344.15 45.45 343.9 46.25 343.45 46.85 342.95 47.45 342.25 47.75 341.5 48.1 340.6 48.1 339.65 48.1 338.9 47.75 338.15 47.45 337.65 46.85 337.15 46.3 336.85 45.5 336.6 44.7 336.6 43.85 336.6 42.95 336.85 42.15 337.1 41.35 337.6 40.75 338.15 40.2 338.85 39.85 339.6 39.5 340.6 39.5
M 407.6 64
L 405.15 64 405.15 79.6 405.1 79.6 394.95 64 392.25 64 392.25 83.25 394.65 83.25 394.65 67.75 394.7 67.75 404.8 83.25 407.6 83.25 407.6 64
M 414.1 67.4
Q 414.5 66.75 415.1 66.4 415.7 66 416.5 65.85 417.25 65.7 418.1 65.7 420.1 65.7 421.35 66.6 422.65 67.55 422.85 69.6
L 425.3 69.6
Q 425.25 68 424.7 66.9 424.15 65.75 423.15 65 422.2 64.2 420.95 63.85 419.65 63.5 418.2 63.5 416.85 63.5 415.6 63.85 414.35 64.2 413.35 64.85 412.4 65.55 411.8 66.65 411.5 67.15 411.35 67.8 411.2 68.45 411.2 69.15 411.2 70.5 411.7 71.35 412.25 72.25 413.1 72.8 414 73.35 415.1 73.7
L 419.6 74.75
Q 420.75 75 421.6 75.4 422.5 75.8 423 76.4 423.55 77.05 423.55 78.05 423.55 79.1 423.1 79.75 422.65 80.45 421.95 80.85 421.25 81.2 420.4 81.4 419.5 81.55 418.65 81.55 417.55 81.55 416.55 81.25 415.5 81 414.75 80.45 414 79.9 413.5 79 413.05 78.1 413.05 76.9
L 410.6 76.9
Q 410.6 78.65 411.25 79.95 411.55 80.6 412 81.1 412.4 81.65 412.95 82.05 414.05 82.85 415.5 83.3 416.95 83.7 418.55 83.7 419.9 83.7 421.25 83.35 422.55 83.05 423.65 82.35 424.7 81.7 425.4 80.6 426.1 79.5 426.1 77.95 426.1 76.55 425.55 75.6 425.05 74.65 424.15 74 423.3 73.4 422.2 73.05
L 417.65 71.9
Q 416.55 71.65 415.7 71.3 414.8 70.95 414.3 70.4 413.75 69.85 413.75 68.95 413.75 68 414.1 67.4
M 430 64
L 427.4 64 432.3 83.25 435 83.25 439.45 67.05 439.5 67.05 443.9 83.25 446.55 83.25 451.75 64 449.15 64 445.25 80 445.2 80 440.95 64 438.15 64 433.85 80 433.75 80 430 64 Z"/>
</g>
</defs>

<g transform="matrix( 0.998992919921875, 0, 0, 1, -294.7,-280) ">
<use xlink:href="#Layer4_0_MEMBER_0_FILL"/>
</g>

<g transform="matrix( 1, 0, 0, 1, 0,0) ">
<use xlink:href="#Layer4_0_MEMBER_1_FILL"/>
</g>

<g transform="matrix( 1, 0, 0, 1, 0,0) ">
<use xlink:href="#Layer4_1_FILL"/>
</g>
</svg>
